  0
SECTION
  2
HEADER
  9
$ACADVER
  1
AC1009
  9
$INSBASE
 10
0.0
 20
0.0
 30
0.0
  9
$EXTMIN
 10
0.0
 20
0.0
 30
0.0
  9
$EXTMAX
 10
100.0
 20
100.0
 30
0.0
  9
$UNITMODE
 70
0
  9
$AUNITS
 70
0
  9
$ANGBASE
 50
0.0
  9
$ANGDIR
 70
0
  0
ENDSEC
  0
SECTION
  2
TABLES
  0
TABLE
  2
LTYPE
 70
19
  0
LTYPE
  2
CONTINUOUS
 70
0
  3
Solid
 72
65
 73
0
 40
0.0
  0
LTYPE
  2
CENTER
 70
0
  3
Center ____ _ ____ _ ____ _ ____ _ ____ _ ____
 72
65
 73
4
 40
2.0
 49
1.25
 49
-0.25
 49
0.25
 49
-0.25
  0
LTYPE
  2
CENTERX2
 70
0
  3
Center (2x) ________  __  ________  __  ________
 72
65
 73
4
 40
3.5
 49
2.5
 49
-0.25
 49
0.5
 49
-0.25
  0
LTYPE
  2
CENTER2
 70
0
  3
Center (.5x) ____ _ ____ _ ____ _ ____ _ ____
 72
65
 73
4
 40
1.0
 49
0.625
 49
-0.125
 49
0.125
 49
-0.125
  0
LTYPE
  2
DASHED
 70
0
  3
Dashed __ __ __ __ __ __ __ __ __ __ __ __ __ _
 72
65
 73
2
 40
0.6
 49
0.5
 49
-0.1
  0
LTYPE
  2
DASHEDX2
 70
0
  3
Dashed (2x) ____  ____  ____  ____  ____  ____
 72
65
 73
2
 40
1.2
 49
1.0
 49
-0.2
  0
LTYPE
  2
DASHED2
 70
0
  3
Dashed (.5x) _ _ _ _ _ _ _ _ _ _ _ _ _ _
 72
65
 73
2
 40
0.3
 49
0.25
 49
-0.05
  0
LTYPE
  2
PHANTOM
 70
0
  3
Phantom ______  __  __  ______  __  __  ______
 72
65
 73
6
 40
2.5
 49
1.25
 49
-0.25
 49
0.25
 49
-0.25
 49
0.25
 49
-0.25
  0
LTYPE
  2
PHANTOMX2
 70
0
  3
Phantom (2x)____________    ____    ____    ____________
 72
65
 73
6
 40
4.25
 49
2.5
 49
-0.25
 49
0.5
 49
-0.25
 49
0.5
 49
-0.25
  0
LTYPE
  2
PHANTOM2
 70
0
  3
Phantom (.5x) ___ _ _ ___ _ _ ___ _ _ ___ _ _ ___
 72
65
 73
6
 40
1.25
 49
0.625
 49
-0.125
 49
0.125
 49
-0.125
 49
0.125
 49
-0.125
  0
LTYPE
  2
DASHDOT
 70
0
  3
Dash dot __ . __ . __ . __ . __ . __ . __ . __
 72
65
 73
4
 40
1.4
 49
1.0
 49
-0.2
 49
0.0
 49
-0.2
  0
LTYPE
  2
DASHDOTX2
 70
0
  3
Dash dot (2x) ____  .  ____  .  ____  .  ____
 72
65
 73
4
 40
2.4
 49
2.0
 49
-0.2
 49
0.0
 49
-0.2
  0
LTYPE
  2
DASHDOT2
 70
0
  3
Dash dot (.5x) _ . _ . _ . _ . _ . _ . _ . _
 72
65
 73
4
 40
0.7
 49
0.5
 49
-0.1
 49
0.0
 49
-0.1
  0
LTYPE
  2
DOT
 70
0
  3
Dot .  .  .  .  .  .  .  .  .  .  .  .  .  .  .  .
 72
65
 73
2
 40
0.2
 49
0.0
 49
-0.2
  0
LTYPE
  2
DOTX2
 70
0
  3
Dot (2x) .    .    .    .    .    .    .    . 
 72
65
 73
2
 40
0.4
 49
0.0
 49
-0.4
  0
LTYPE
  2
DOT2
 70
0
  3
Dot (.5) . . . . . . . . . . . . . . . . . . . 
 72
65
 73
2
 40
0.1
 49
0.0
 49
-0.1
  0
LTYPE
  2
DIVIDE
 70
0
  3
Divide __ . . __ . . __ . . __ . . __ . . __
 72
65
 73
6
 40
1.6
 49
1.0
 49
-0.2
 49
0.0
 49
-0.2
 49
0.0
 49
-0.2
  0
LTYPE
  2
DIVIDEX2
 70
0
  3
Divide (2x) ____  . .  ____  . .  ____  . .  ____
 72
65
 73
6
 40
2.6
 49
2.0
 49
-0.2
 49
0.0
 49
-0.2
 49
0.0
 49
-0.2
  0
LTYPE
  2
DIVIDE2
 70
0
  3
Divide(.5x) _ . _ . _ . _ . _ . _ . _ . _
 72
65
 73
6
 40
0.8
 49
0.5
 49
-0.1
 49
0.0
 49
-0.1
 49
0.0
 49
-0.1
  0
ENDTAB
  0
TABLE
  2
LAYER
 70
5
  0
LAYER
  2
DIMENSIONS
 70
0
 62
1
  6
CONTINUOUS
  0
LAYER
  2
TABLEBACKGROUND
 70
0
 62
1
  6
CONTINUOUS
  0
LAYER
  2
TABLECONTENT
 70
0
 62
1
  6
CONTINUOUS
  0
LAYER
  2
TABLEGRID
 70
0
 62
1
  6
CONTINUOUS
  0
LAYER
  2
VIEWPORTS
 70
0
 62
7
  6
CONTINUOUS
  0
ENDTAB
  0
TABLE
  2
STYLE
 70
12
  0
STYLE
  2
STANDARD
 70
0
 40
0.0
 41
1.0
 42
1.0
 50
0.0
 71
0
  3
arial.ttf
  4

  0
STYLE
  2
ARIAL
 70
0
 40
0.0
 41
1.0
 42
1.0
 50
0.0
 71
0
  3
arial.ttf
  4

  0
STYLE
  2
ARIAL_BOLD
 70
0
 40
0.0
 41
1.0
 42
1.0
 50
0.0
 71
0
  3
arialbd.ttf
  4

  0
STYLE
  2
ARIAL_ITALIC
 70
0
 40
0.0
 41
1.0
 42
1.0
 50
0.0
 71
0
  3
ariali.ttf
  4

  0
STYLE
  2
ARIAL_BOLD_ITALIC
 70
0
 40
0.0
 41
1.0
 42
1.0
 50
0.0
 71
0
  3
arialbi.ttf
  4

  0
STYLE
  2
ARIAL_BLACK
 70
0
 40
0.0
 41
1.0
 42
1.0
 50
0.0
 71
0
  3
ariblk.ttf
  4

  0
STYLE
  2
ISOCPEUR
 70
0
 40
0.0
 41
1.0
 42
1.0
 50
0.0
 71
0
  3
isocpeur.ttf
  4

  0
STYLE
  2
ISOCPEUR_ITALIC
 70
0
 40
0.0
 41
1.0
 42
1.0
 50
0.0
 71
0
  3
isocpeui.ttf
  4

  0
STYLE
  2
TIMES
 70
0
 40
0.0
 41
1.0
 42
1.0
 50
0.0
 71
0
  3
times.ttf
  4

  0
STYLE
  2
TIMES_BOLD
 70
0
 40
0.0
 41
1.0
 42
1.0
 50
0.0
 71
0
  3
timesbd.ttf
  4

  0
STYLE
  2
TIMES_ITALIC
 70
0
 40
0.0
 41
1.0
 42
1.0
 50
0.0
 71
0
  3
timesi.ttf
  4

  0
STYLE
  2
TIMES_BOLD_ITALIC
 70
0
 40
0.0
 41
1.0
 42
1.0
 50
0.0
 71
0
  3
timesbi.ttf
  4

  0
ENDTAB
  0
TABLE
  2
VIEW
 70
0
  0
ENDTAB
  0
TABLE
  2
APPID
 70
1
  0
APPID
  2
DXFWRITE
 70
0
  0
ENDTAB
  0
TABLE
  2
VPORT
 70
0
  0
ENDTAB
  0
TABLE
  2
UCS
 70
0
  0
ENDTAB
  0
ENDSEC
  0
SECTION
  2
BLOCKS
  0
ENDSEC
  0
SECTION
  2
ENTITIES
  0
VIEWPORT
  8
VIEWPORTS
 67
1
 10
0.0
 20
0.0
 30
0.0
 40
1.0
 41
1.0
 68
1
 69
1
1001
ACAD
1000
MVIEW
1002
{
1070
16
1010
0.0
1020
0.0
1030
0.0
1010
0.0
1020
0.0
1030
0.0
1040
0.0
1040
1.0
1040
0.0
1040
0.0
1040
50.0
1040
0.0
1040
0.0
1070
0
1070
100
1070
1
1070
3
1070
0
1070
0
1070
0
1070
0
1040
0.0
1040
0.0
1040
0.0
1040
0.1
1040
0.1
1040
0.1
1040
0.1
1070
0
1002
{
1002
}
1002
}
  0
POLYLINE
 62
256
  8
0
 66
1
 10
0.0
 20
0.0
 30
0.0
 70
9
  0
VERTEX
  8
0
 10
0.0
 20
21.0
 30
0.0
  0
VERTEX
  8
0
 10
8.5
 20
21.0
 30
0.0
  0
VERTEX
  8
0
 10
8.5
 20
32.0
 30
0.0
  0
VERTEX
  8
0
 10
0.0
 20
32.0
 30
0.0
  0
SEQEND
  0
POLYLINE
 62
256
  8
0
 66
1
 10
0.0
 20
0.0
 30
0.0
 70
9
  0
VERTEX
  8
0
 10
0.0
 20
21.0
 30
0.0
  0
VERTEX
  8
0
 10
3.0300925925925926
 20
21.0
 30
0.0
  0
VERTEX
  8
0
 10
3.0300925925925926
 20
24.738425925925927
 30
0.0
  0
VERTEX
  8
0
 10
0.0
 20
24.738425925925927
 30
0.0
  0
SEQEND
  0
TEXT
  8
0
 10
0.0
 20
24.43541666666667
 30
0.0
 40
0.30300925925925926
  1
C-501(XXX)
  0
TEXT
  8
0
 10
0.0
 20
24.13240740740741
 30
0.0
 40
0.30300925925925926
  1
(77.0 * 95.0)
  0
POLYLINE
 62
256
  8
0
 66
1
 10
0.0
 20
0.0
 30
0.0
 70
9
  0
VERTEX
  8
0
 10
3.5300925925925926
 20
21.0
 30
0.0
  0
VERTEX
  8
0
 10
5.576388888888889
 20
21.0
 30
0.0
  0
VERTEX
  8
0
 10
5.576388888888889
 20
23.59722222222222
 30
0.0
  0
VERTEX
  8
0
 10
3.5300925925925926
 20
23.59722222222222
 30
0.0
  0
SEQEND
  0
TEXT
  8
0
 10
3.5300925925925926
 20
23.392592592592592
 30
0.0
 40
0.20462962962962963
  1
C-503(XXX)
  0
TEXT
  8
0
 10
3.5300925925925926
 20
23.187962962962963
 30
0.0
 40
0.20462962962962963
  1
(52.0 * 66.0)
  0
POLYLINE
 62
256
  8
0
 66
1
 10
0.0
 20
0.0
 30
0.0
 70
9
  0
VERTEX
  8
0
 10
0.0
 20
25.238425925925924
 30
0.0
  0
VERTEX
  8
0
 10
1.9675925925925926
 20
25.238425925925924
 30
0.0
  0
VERTEX
  8
0
 10
1.9675925925925926
 20
27.206018518518515
 30
0.0
  0
VERTEX
  8
0
 10
0.0
 20
27.206018518518515
 30
0.0
  0
SEQEND
  0
TEXT
  8
0
 10
0.0
 20
27.009259259259256
 30
0.0
 40
0.19675925925925927
  1
C-510(XXX)
  0
TEXT
  8
0
 10
0.0
 20
26.812499999999996
 30
0.0
 40
0.19675925925925927
  1
(50.0 * 50.0)
  0
POLYLINE
 62
256
  8
0
 66
1
 10
0.0
 20
0.0
 30
0.0
 70
9
  0
VERTEX
  8
0
 10
2.4675925925925926
 20
25.238425925925924
 30
0.0
  0
VERTEX
  8
0
 10
3.6875
 20
25.238425925925924
 30
0.0
  0
VERTEX
  8
0
 10
3.6875
 20
26.458333333333332
 30
0.0
  0
VERTEX
  8
0
 10
2.4675925925925926
 20
26.458333333333332
 30
0.0
  0
SEQEND
  0
TEXT
  8
0
 10
2.4675925925925926
 20
26.33634259259259
 30
0.0
 40
0.12199074074074075
  1
C-502(XXX)
  0
TEXT
  8
0
 10
2.4675925925925926
 20
26.214351851851852
 30
0.0
 40
0.12199074074074075
  1
(31.0 * 31.0)
  0
POLYLINE
 62
256
  8
0
 66
1
 10
0.0
 20
0.0
 30
0.0
 70
9
  0
VERTEX
  8
0
 10
4.1875
 20
25.238425925925924
 30
0.0
  0
VERTEX
  8
0
 10
4.935185185185185
 20
25.238425925925924
 30
0.0
  0
VERTEX
  8
0
 10
4.935185185185185
 20
26.300925925925924
 30
0.0
  0
VERTEX
  8
0
 10
4.1875
 20
26.300925925925924
 30
0.0
  0
SEQEND
  0
TEXT
  8
0
 10
4.1875
 20
26.226157407407406
 30
0.0
 40
0.07476851851851851
  1
C-514(XXX)
  0
TEXT
  8
0
 10
4.1875
 20
26.15138888888889
 30
0.0
 40
0.07476851851851851
  1
(19.0 * 27.0)
  0
POLYLINE
 62
256
  8
0
 66
1
 10
0.0
 20
0.0
 30
0.0
 70
9
  0
VERTEX
  8
0
 10
3.5300925925925926
 20
24.09722222222222
 30
0.0
  0
VERTEX
  8
0
 10
4.21875
 20
24.09722222222222
 30
0.0
  0
VERTEX
  8
0
 10
4.21875
 20
24.64814814814815
 30
0.0
  0
VERTEX
  8
0
 10
3.5300925925925926
 20
24.64814814814815
 30
0.0
  0
SEQEND
  0
TEXT
  8
0
 10
3.5300925925925926
 20
24.57928240740741
 30
0.0
 40
0.06886574074074074
  1
C-504(XXX)
  0
TEXT
  8
0
 10
3.5300925925925926
 20
24.510416666666668
 30
0.0
 40
0.06886574074074074
  1
(17.5 * 14.0)
  0
POLYLINE
 62
256
  8
0
 66
1
 10
0.0
 20
0.0
 30
0.0
 70
9
  0
VERTEX
  8
0
 10
0.0
 20
42.0
 30
0.0
  0
VERTEX
  8
0
 10
8.5
 20
42.0
 30
0.0
  0
VERTEX
  8
0
 10
8.5
 20
53.0
 30
0.0
  0
VERTEX
  8
0
 10
0.0
 20
53.0
 30
0.0
  0
SEQEND
  0
POLYLINE
 62
256
  8
0
 66
1
 10
0.0
 20
0.0
 30
0.0
 70
9
  0
VERTEX
  8
0
 10
0.0
 20
42.0
 30
0.0
  0
VERTEX
  8
0
 10
1.4166666666666667
 20
42.0
 30
0.0
  0
VERTEX
  8
0
 10
1.4166666666666667
 20
44.43981481481482
 30
0.0
  0
VERTEX
  8
0
 10
0.0
 20
44.43981481481482
 30
0.0
  0
SEQEND
  0
TEXT
  8
0
 10
0.0
 20
44.29814814814815
 30
0.0
 40
0.14166666666666666
  1
C-515(XXX)
  0
TEXT
  8
0
 10
0.0
 20
44.156481481481485
 30
0.0
 40
0.14166666666666666
  1
(36.0 * 62.0)
  0
POLYLINE
 62
256
  8
0
 66
1
 10
0.0
 20
0.0
 30
0.0
 70
9
  0
VERTEX
  8
0
 10
0.0
 20
44.93981481481482
 30
0.0
  0
VERTEX
  8
0
 10
1.1805555555555556
 20
44.93981481481482
 30
0.0
  0
VERTEX
  8
0
 10
1.1805555555555556
 20
47.37962962962963
 30
0.0
  0
VERTEX
  8
0
 10
0.0
 20
47.37962962962963
 30
0.0
  0
SEQEND
  0
TEXT
  8
0
 10
0.0
 20
47.261574074074076
 30
0.0
 40
0.11805555555555555
  1
C-512(XXX)
  0
TEXT
  8
0
 10
0.0
 20
47.14351851851852
 30
0.0
 40
0.11805555555555555
  1
(30.0 * 62.0)
  0
POLYLINE
 62
256
  8
0
 66
1
 10
0.0
 20
0.0
 30
0.0
 70
9
  0
VERTEX
  8
0
 10
1.9166666666666667
 20
42.0
 30
0.0
  0
VERTEX
  8
0
 10
3.0578703703703702
 20
42.0
 30
0.0
  0
VERTEX
  8
0
 10
3.0578703703703702
 20
43.1412037037037
 30
0.0
  0
VERTEX
  8
0
 10
1.9166666666666667
 20
43.1412037037037
 30
0.0
  0
SEQEND
  0
TEXT
  8
0
 10
1.9166666666666667
 20
43.02708333333333
 30
0.0
 40
0.11412037037037037
  1
C-507(XXX)
  0
TEXT
  8
0
 10
1.9166666666666667
 20
42.912962962962965
 30
0.0
 40
0.11412037037037037
  1
(29.0 * 29.0)
  0
POLYLINE
 62
256
  8
0
 66
1
 10
0.0
 20
0.0
 30
0.0
 70
9
  0
VERTEX
  8
0
 10
1.6805555555555556
 20
44.93981481481482
 30
0.0
  0
VERTEX
  8
0
 10
2.8217592592592595
 20
44.93981481481482
 30
0.0
  0
VERTEX
  8
0
 10
2.8217592592592595
 20
46.08101851851852
 30
0.0
  0
VERTEX
  8
0
 10
1.6805555555555556
 20
46.08101851851852
 30
0.0
  0
SEQEND
  0
TEXT
  8
0
 10
1.6805555555555556
 20
45.96689814814815
 30
0.0
 40
0.11412037037037037
  1
C-508(XXX)
  0
TEXT
  8
0
 10
1.6805555555555556
 20
45.85277777777778
 30
0.0
 40
0.11412037037037037
  1
(29.0 * 29.0)
  0
POLYLINE
 62
256
  8
0
 66
1
 10
0.0
 20
0.0
 30
0.0
 70
9
  0
VERTEX
  8
0
 10
0.0
 20
47.87962962962963
 30
0.0
  0
VERTEX
  8
0
 10
0.7870370370370371
 20
47.87962962962963
 30
0.0
  0
VERTEX
  8
0
 10
0.7870370370370371
 20
48.66666666666667
 30
0.0
  0
VERTEX
  8
0
 10
0.0
 20
48.66666666666667
 30
0.0
  0
SEQEND
  0
TEXT
  8
0
 10
0.0
 20
48.58796296296297
 30
0.0
 40
0.0787037037037037
  1
C-513(XXX)
  0
TEXT
  8
0
 10
0.0
 20
48.50925925925927
 30
0.0
 40
0.0787037037037037
  1
(20.0 * 20.0)
  0
POLYLINE
 62
256
  8
0
 66
1
 10
0.0
 20
0.0
 30
0.0
 70
9
  0
VERTEX
  8
0
 10
3.5578703703703702
 20
42.0
 30
0.0
  0
VERTEX
  8
0
 10
4.148148148148148
 20
42.0
 30
0.0
  0
VERTEX
  8
0
 10
4.148148148148148
 20
42.78703703703704
 30
0.0
  0
VERTEX
  8
0
 10
3.5578703703703702
 20
42.78703703703704
 30
0.0
  0
SEQEND
  0
TEXT
  8
0
 10
3.5578703703703702
 20
42.72800925925926
 30
0.0
 40
0.059027777777777776
  1
C-505(XXX)
  0
TEXT
  8
0
 10
3.5578703703703702
 20
42.66898148148148
 30
0.0
 40
0.059027777777777776
  1
(15.0 * 20.0)
  0
POLYLINE
 62
256
  8
0
 66
1
 10
0.0
 20
0.0
 30
0.0
 70
9
  0
VERTEX
  8
0
 10
1.9166666666666667
 20
43.6412037037037
 30
0.0
  0
VERTEX
  8
0
 10
2.388888888888889
 20
43.6412037037037
 30
0.0
  0
VERTEX
  8
0
 10
2.388888888888889
 20
44.113425925925924
 30
0.0
  0
VERTEX
  8
0
 10
1.9166666666666667
 20
44.113425925925924
 30
0.0
  0
SEQEND
  0
TEXT
  8
0
 10
1.9166666666666667
 20
44.0662037037037
 30
0.0
 40
0.04722222222222222
  1
C-511(XXX)
  0
TEXT
  8
0
 10
1.9166666666666667
 20
44.01898148148148
 30
0.0
 40
0.04722222222222222
  1
(12.0 * 12.0)
  0
POLYLINE
 62
256
  8
0
 66
1
 10
0.0
 20
0.0
 30
0.0
 70
9
  0
VERTEX
  8
0
 10
3.3217592592592595
 20
44.93981481481482
 30
0.0
  0
VERTEX
  8
0
 10
3.7546296296296298
 20
44.93981481481482
 30
0.0
  0
VERTEX
  8
0
 10
3.7546296296296298
 20
45.29398148148148
 30
0.0
  0
VERTEX
  8
0
 10
3.3217592592592595
 20
45.29398148148148
 30
0.0
  0
SEQEND
  0
TEXT
  8
0
 10
3.3217592592592595
 20
45.25069444444444
 30
0.0
 40
0.04328703703703704
  1
C-506(XXX)
  0
TEXT
  8
0
 10
3.3217592592592595
 20
45.20740740740741
 30
0.0
 40
0.04328703703703704
  1
(11.0 * 9.0)
  0
POLYLINE
 62
256
  8
0
 66
1
 10
0.0
 20
0.0
 30
0.0
 70
9
  0
VERTEX
  8
0
 10
1.2870370370370372
 20
47.87962962962963
 30
0.0
  0
VERTEX
  8
0
 10
1.9953703703703707
 20
47.87962962962963
 30
0.0
  0
VERTEX
  8
0
 10
1.9953703703703707
 20
48.58796296296297
 30
0.0
  0
VERTEX
  8
0
 10
1.2870370370370372
 20
48.58796296296297
 30
0.0
  0
SEQEND
  0
TEXT
  8
0
 10
1.2870370370370372
 20
48.517129629629636
 30
0.0
 40
0.07083333333333333
  1
LW-429(XXX)
  0
TEXT
  8
0
 10
1.2870370370370372
 20
48.4462962962963
 30
0.0
 40
0.07083333333333333
  1
(18.0 * 18.0)
  0
POLYLINE
 62
256
  8
0
 66
1
 10
0.0
 20
0.0
 30
0.0
 70
9
  0
VERTEX
  8
0
 10
0.0
 20
63.0
 30
0.0
  0
VERTEX
  8
0
 10
8.5
 20
63.0
 30
0.0
  0
VERTEX
  8
0
 10
8.5
 20
74.0
 30
0.0
  0
VERTEX
  8
0
 10
0.0
 20
74.0
 30
0.0
  0
SEQEND
  0
POLYLINE
 62
256
  8
0
 66
1
 10
0.0
 20
0.0
 30
0.0
 70
9
  0
VERTEX
  8
0
 10
0.0
 20
63.0
 30
0.0
  0
VERTEX
  8
0
 10
0.6296296296296297
 20
63.0
 30
0.0
  0
VERTEX
  8
0
 10
0.6296296296296297
 20
64.77083333333333
 30
0.0
  0
VERTEX
  8
0
 10
0.0
 20
64.77083333333333
 30
0.0
  0
SEQEND
  0
TEXT
  8
0
 10
0.0
 20
64.70787037037037
 30
0.0
 40
0.06296296296296297
  1
C-509(XXX)
  0
TEXT
  8
0
 10
0.0
 20
64.6449074074074
 30
0.0
 40
0.06296296296296297
  1
(16.0 * 45.0)
  0
POLYLINE
 62
256
  8
0
 66
1
 10
0.0
 20
0.0
 30
0.0
 70
9
  0
VERTEX
  8
0
 10
1.1296296296296298
 20
63.0
 30
0.0
  0
VERTEX
  8
0
 10
1.6412037037037037
 20
63.0
 30
0.0
  0
VERTEX
  8
0
 10
1.6412037037037037
 20
64.41666666666667
 30
0.0
  0
VERTEX
  8
0
 10
1.1296296296296298
 20
64.41666666666667
 30
0.0
  0
SEQEND
  0
TEXT
  8
0
 10
1.1296296296296298
 20
64.36550925925927
 30
0.0
 40
0.05115740740740741
  1
C-516(XXX)
  0
TEXT
  8
0
 10
1.1296296296296298
 20
64.31435185185185
 30
0.0
 40
0.05115740740740741
  1
(13.0 * 36.0)
  0
POLYLINE
 62
256
  8
0
 66
1
 10
0.0
 20
0.0
 30
0.0
 70
9
  0
VERTEX
  8
0
 10
0.0
 20
65.27083333333333
 30
0.0
  0
VERTEX
  8
0
 10
1.7314814814814816
 20
65.27083333333333
 30
0.0
  0
VERTEX
  8
0
 10
1.7314814814814816
 20
67.47453703703704
 30
0.0
  0
VERTEX
  8
0
 10
0.0
 20
67.47453703703704
 30
0.0
  0
SEQEND
  0
TEXT
  8
0
 10
0.0
 20
67.3013888888889
 30
0.0
 40
0.17314814814814816
  1
LC-210(XXX)
  0
TEXT
  8
0
 10
0.0
 20
67.12824074074074
 30
0.0
 40
0.17314814814814816
  1
(44.0 * 56.0)
  0
POLYLINE
 62
256
  8
0
 66
1
 10
0.0
 20
0.0
 30
0.0
 70
9
  0
VERTEX
  8
0
 10
2.231481481481482
 20
65.27083333333333
 30
0.0
  0
VERTEX
  8
0
 10
3.8055555555555562
 20
65.27083333333333
 30
0.0
  0
VERTEX
  8
0
 10
3.8055555555555562
 20
67.39583333333333
 30
0.0
  0
VERTEX
  8
0
 10
2.231481481481482
 20
67.39583333333333
 30
0.0
  0
SEQEND
  0
TEXT
  8
0
 10
2.231481481481482
 20
67.23842592592592
 30
0.0
 40
0.1574074074074074
  1
LC-208(XXX)
  0
TEXT
  8
0
 10
2.231481481481482
 20
67.08101851851852
 30
0.0
 40
0.1574074074074074
  1
(40.0 * 54.0)
  0
POLYLINE
 62
256
  8
0
 66
1
 10
0.0
 20
0.0
 30
0.0
 70
9
  0
VERTEX
  8
0
 10
0.0
 20
67.97453703703704
 30
0.0
  0
VERTEX
  8
0
 10
1.5347222222222223
 20
67.97453703703704
 30
0.0
  0
VERTEX
  8
0
 10
1.5347222222222223
 20
70.02083333333333
 30
0.0
  0
VERTEX
  8
0
 10
0.0
 20
70.02083333333333
 30
0.0
  0
SEQEND
  0
TEXT
  8
0
 10
0.0
 20
69.86736111111111
 30
0.0
 40
0.15347222222222223
  1
LC-207(XXX)
  0
TEXT
  8
0
 10
0.0
 20
69.71388888888889
 30
0.0
 40
0.15347222222222223
  1
(39.0 * 52.0)
  0
POLYLINE
 62
256
  8
0
 66
1
 10
0.0
 20
0.0
 30
0.0
 70
9
  0
VERTEX
  8
0
 10
2.0347222222222223
 20
67.97453703703704
 30
0.0
  0
VERTEX
  8
0
 10
3.5300925925925926
 20
67.97453703703704
 30
0.0
  0
VERTEX
  8
0
 10
3.5300925925925926
 20
69.82407407407408
 30
0.0
  0
VERTEX
  8
0
 10
2.0347222222222223
 20
69.82407407407408
 30
0.0
  0
SEQEND
  0
TEXT
  8
0
 10
2.0347222222222223
 20
69.67453703703704
 30
0.0
 40
0.14953703703703702
  1
LC-204(XXX)
  0
TEXT
  8
0
 10
2.0347222222222223
 20
69.525
 30
0.0
 40
0.14953703703703702
  1
(38.0 * 47.0)
  0
POLYLINE
 62
256
  8
0
 66
1
 10
0.0
 20
0.0
 30
0.0
 70
9
  0
VERTEX
  8
0
 10
4.305555555555556
 20
65.27083333333333
 30
0.0
  0
VERTEX
  8
0
 10
5.761574074074074
 20
65.27083333333333
 30
0.0
  0
VERTEX
  8
0
 10
5.761574074074074
 20
67.08101851851852
 30
0.0
  0
VERTEX
  8
0
 10
4.305555555555556
 20
67.08101851851852
 30
0.0
  0
SEQEND
  0
TEXT
  8
0
 10
4.305555555555556
 20
66.93541666666667
 30
0.0
 40
0.14560185185185187
  1
LC-214(XXX)
  0
TEXT
  8
0
 10
4.305555555555556
 20
66.78981481481482
 30
0.0
 40
0.14560185185185187
  1
(37.0 * 46.0)
  0
POLYLINE
 62
256
  8
0
 66
1
 10
0.0
 20
0.0
 30
0.0
 70
9
  0
VERTEX
  8
0
 10
4.030092592592593
 20
67.97453703703704
 30
0.0
  0
VERTEX
  8
0
 10
5.486111111111111
 20
67.97453703703704
 30
0.0
  0
VERTEX
  8
0
 10
5.486111111111111
 20
69.62731481481481
 30
0.0
  0
VERTEX
  8
0
 10
4.030092592592593
 20
69.62731481481481
 30
0.0
  0
SEQEND
  0
TEXT
  8
0
 10
4.030092592592593
 20
69.48171296296296
 30
0.0
 40
0.14560185185185187
  1
LC-212(XXX)
  0
TEXT
  8
0
 10
4.030092592592593
 20
69.33611111111111
 30
0.0
 40
0.14560185185185187
  1
(37.0 * 42.0)
  0
POLYLINE
 62
256
  8
0
 66
1
 10
0.0
 20
0.0
 30
0.0
 70
9
  0
VERTEX
  8
0
 10
2.1412037037037037
 20
63.0
 30
0.0
  0
VERTEX
  8
0
 10
3.125
 20
63.0
 30
0.0
  0
VERTEX
  8
0
 10
3.125
 20
64.18055555555556
 30
0.0
  0
VERTEX
  8
0
 10
2.1412037037037037
 20
64.18055555555556
 30
0.0
  0
SEQEND
  0
TEXT
  8
0
 10
2.1412037037037037
 20
64.08217592592592
 30
0.0
 40
0.09837962962962964
  1
LC-215(XXX)
  0
TEXT
  8
0
 10
2.1412037037037037
 20
63.9837962962963
 30
0.0
 40
0.09837962962962964
  1
(25.0 * 30.0)
  0
POLYLINE
 62
256
  8
0
 66
1
 10
0.0
 20
0.0
 30
0.0
 70
9
  0
VERTEX
  8
0
 10
3.625
 20
63.0
 30
0.0
  0
VERTEX
  8
0
 10
4.648148148148148
 20
63.0
 30
0.0
  0
VERTEX
  8
0
 10
4.648148148148148
 20
64.02314814814815
 30
0.0
  0
VERTEX
  8
0
 10
3.625
 20
64.02314814814815
 30
0.0
  0
SEQEND
  0
TEXT
  8
0
 10
3.625
 20
63.920833333333334
 30
0.0
 40
0.10231481481481482
  1
SW-303(XXX)
  0
TEXT
  8
0
 10
3.625
 20
63.81851851851852
 30
0.0
 40
0.10231481481481482
  1
(26.0 * 26.0)
  0
POLYLINE
 62
256
  8
0
 66
1
 10
0.0
 20
0.0
 30
0.0
 70
9
  0
VERTEX
  8
0
 10
0.0
 20
84.0
 30
0.0
  0
VERTEX
  8
0
 10
8.5
 20
84.0
 30
0.0
  0
VERTEX
  8
0
 10
8.5
 20
95.0
 30
0.0
  0
VERTEX
  8
0
 10
0.0
 20
95.0
 30
0.0
  0
SEQEND
  0
POLYLINE
 62
256
  8
0
 66
1
 10
0.0
 20
0.0
 30
0.0
 70
9
  0
VERTEX
  8
0
 10
0.0
 20
84.0
 30
0.0
  0
VERTEX
  8
0
 10
1.4560185185185186
 20
84.0
 30
0.0
  0
VERTEX
  8
0
 10
1.4560185185185186
 20
85.49537037037037
 30
0.0
  0
VERTEX
  8
0
 10
0.0
 20
85.49537037037037
 30
0.0
  0
SEQEND
  0
TEXT
  8
0
 10
0.0
 20
85.34976851851852
 30
0.0
 40
0.14560185185185187
  1
LC-211(XXX)
  0
TEXT
  8
0
 10
0.0
 20
85.20416666666667
 30
0.0
 40
0.14560185185185187
  1
(37.0 * 38.0)
  0
POLYLINE
 62
256
  8
0
 66
1
 10
0.0
 20
0.0
 30
0.0
 70
9
  0
VERTEX
  8
0
 10
0.0
 20
85.99537037037037
 30
0.0
  0
VERTEX
  8
0
 10
1.4166666666666667
 20
85.99537037037037
 30
0.0
  0
VERTEX
  8
0
 10
1.4166666666666667
 20
87.56944444444444
 30
0.0
  0
VERTEX
  8
0
 10
0.0
 20
87.56944444444444
 30
0.0
  0
SEQEND
  0
TEXT
  8
0
 10
0.0
 20
87.42777777777778
 30
0.0
 40
0.14166666666666666
  1
LC-205(XXX)
  0
TEXT
  8
0
 10
0.0
 20
87.28611111111111
 30
0.0
 40
0.14166666666666666
  1
(36.0 * 40.0)
  0
POLYLINE
 62
256
  8
0
 66
1
 10
0.0
 20
0.0
 30
0.0
 70
9
  0
VERTEX
  8
0
 10
0.0
 20
88.06944444444444
 30
0.0
  0
VERTEX
  8
0
 10
1.4166666666666667
 20
88.06944444444444
 30
0.0
  0
VERTEX
  8
0
 10
1.4166666666666667
 20
89.64351851851852
 30
0.0
  0
VERTEX
  8
0
 10
0.0
 20
89.64351851851852
 30
0.0
  0
SEQEND
  0
TEXT
  8
0
 10
0.0
 20
89.50185185185185
 30
0.0
 40
0.14166666666666666
  1
LC-206(XXX)
  0
TEXT
  8
0
 10
0.0
 20
89.36018518518519
 30
0.0
 40
0.14166666666666666
  1
(36.0 * 40.0)
  0
POLYLINE
 62
256
  8
0
 66
1
 10
0.0
 20
0.0
 30
0.0
 70
9
  0
VERTEX
  8
0
 10
1.9560185185185186
 20
84.0
 30
0.0
  0
VERTEX
  8
0
 10
3.372685185185185
 20
84.0
 30
0.0
  0
VERTEX
  8
0
 10
3.372685185185185
 20
85.41666666666667
 30
0.0
  0
VERTEX
  8
0
 10
1.9560185185185186
 20
85.41666666666667
 30
0.0
  0
SEQEND
  0
TEXT
  8
0
 10
1.9560185185185186
 20
85.275
 30
0.0
 40
0.14166666666666666
  1
LW-404(XXX)
  0
TEXT
  8
0
 10
1.9560185185185186
 20
85.13333333333334
 30
0.0
 40
0.14166666666666666
  1
(36.0 * 36.0)
  0
POLYLINE
 62
256
  8
0
 66
1
 10
0.0
 20
0.0
 30
0.0
 70
9
  0
VERTEX
  8
0
 10
1.9166666666666667
 20
85.99537037037037
 30
0.0
  0
VERTEX
  8
0
 10
3.3333333333333335
 20
85.99537037037037
 30
0.0
  0
VERTEX
  8
0
 10
3.3333333333333335
 20
87.17592592592592
 30
0.0
  0
VERTEX
  8
0
 10
1.9166666666666667
 20
87.17592592592592
 30
0.0
  0
SEQEND
  0
TEXT
  8
0
 10
1.9166666666666667
 20
87.03425925925926
 30
0.0
 40
0.14166666666666666
  1
LW-409(XXX)
  0
TEXT
  8
0
 10
1.9166666666666667
 20
86.89259259259259
 30
0.0
 40
0.14166666666666666
  1
(36.0 * 30.0)
  0
POLYLINE
 62
256
  8
0
 66
1
 10
0.0
 20
0.0
 30
0.0
 70
9
  0
VERTEX
  8
0
 10
1.9166666666666667
 20
88.06944444444444
 30
0.0
  0
VERTEX
  8
0
 10
3.1365740740740744
 20
88.06944444444444
 30
0.0
  0
VERTEX
  8
0
 10
3.1365740740740744
 20
88.85648148148148
 30
0.0
  0
VERTEX
  8
0
 10
1.9166666666666667
 20
88.85648148148148
 30
0.0
  0
SEQEND
  0
TEXT
  8
0
 10
1.9166666666666667
 20
88.73449074074074
 30
0.0
 40
0.12199074074074075
  1
SW-306(XXX)
  0
TEXT
  8
0
 10
1.9166666666666667
 20
88.6125
 30
0.0
 40
0.12199074074074075
  1
(31.0 * 20.0)
  0
POLYLINE
 62
256
  8
0
 66
1
 10
0.0
 20
0.0
 30
0.0
 70
9
  0
VERTEX
  8
0
 10
0.0
 20
105.0
 30
0.0
  0
VERTEX
  8
0
 10
8.5
 20
105.0
 30
0.0
  0
VERTEX
  8
0
 10
8.5
 20
116.0
 30
0.0
  0
VERTEX
  8
0
 10
0.0
 20
116.0
 30
0.0
  0
SEQEND
  0
POLYLINE
 62
256
  8
0
 66
1
 10
0.0
 20
0.0
 30
0.0
 70
9
  0
VERTEX
  8
0
 10
0.0
 20
105.0
 30
0.0
  0
VERTEX
  8
0
 10
1.2592592592592593
 20
105.0
 30
0.0
  0
VERTEX
  8
0
 10
1.2592592592592593
 20
106.81018518518519
 30
0.0
  0
VERTEX
  8
0
 10
0.0
 20
106.81018518518519
 30
0.0
  0
SEQEND
  0
TEXT
  8
0
 10
0.0
 20
106.68425925925926
 30
0.0
 40
0.12592592592592594
  1
LC-209(XXX)
  0
TEXT
  8
0
 10
0.0
 20
106.55833333333334
 30
0.0
 40
0.12592592592592594
  1
(32.0 * 46.0)
  0
POLYLINE
 62
256
  8
0
 66
1
 10
0.0
 20
0.0
 30
0.0
 70
9
  0
VERTEX
  8
0
 10
1.7592592592592593
 20
105.0
 30
0.0
  0
VERTEX
  8
0
 10
2.939814814814815
 20
105.0
 30
0.0
  0
VERTEX
  8
0
 10
2.939814814814815
 20
106.69212962962963
 30
0.0
  0
VERTEX
  8
0
 10
1.7592592592592593
 20
106.69212962962963
 30
0.0
  0
SEQEND
  0
TEXT
  8
0
 10
1.7592592592592593
 20
106.57407407407408
 30
0.0
 40
0.11805555555555555
  1
LC-213(XXX)
  0
TEXT
  8
0
 10
1.7592592592592593
 20
106.45601851851852
 30
0.0
 40
0.11805555555555555
  1
(30.0 * 43.0)
  0
POLYLINE
 62
256
  8
0
 66
1
 10
0.0
 20
0.0
 30
0.0
 70
9
  0
VERTEX
  8
0
 10
0.0
 20
107.31018518518519
 30
0.0
  0
VERTEX
  8
0
 10
3.7777777777777777
 20
107.31018518518519
 30
0.0
  0
VERTEX
  8
0
 10
3.7777777777777777
 20
111.08796296296296
 30
0.0
  0
VERTEX
  8
0
 10
0.0
 20
111.08796296296296
 30
0.0
  0
SEQEND
  0
TEXT
  8
0
 10
0.0
 20
110.71018518518518
 30
0.0
 40
0.37777777777777777
  1
B-118(XXX)
  0
TEXT
  8
0
 10
0.0
 20
110.3324074074074
 30
0.0
 40
0.37777777777777777
  1
(96.0 * 96.0)
  0
POLYLINE
 62
256
  8
0
 66
1
 10
0.0
 20
0.0
 30
0.0
 70
9
  0
VERTEX
  8
0
 10
4.277777777777778
 20
107.31018518518519
 30
0.0
  0
VERTEX
  8
0
 10
7.858796296296296
 20
107.31018518518519
 30
0.0
  0
VERTEX
  8
0
 10
7.858796296296296
 20
110.89120370370371
 30
0.0
  0
VERTEX
  8
0
 10
4.277777777777778
 20
110.89120370370371
 30
0.0
  0
SEQEND
  0
TEXT
  8
0
 10
4.277777777777778
 20
110.53310185185185
 30
0.0
 40
0.35810185185185184
  1
B-103(XXX)
  0
TEXT
  8
0
 10
4.277777777777778
 20
110.17500000000001
 30
0.0
 40
0.35810185185185184
  1
(91.0 * 91.0)
  0
POLYLINE
 62
256
  8
0
 66
1
 10
0.0
 20
0.0
 30
0.0
 70
9
  0
VERTEX
  8
0
 10
3.439814814814815
 20
105.0
 30
0.0
  0
VERTEX
  8
0
 10
5.112268518518519
 20
105.0
 30
0.0
  0
VERTEX
  8
0
 10
5.112268518518519
 20
106.67245370370371
 30
0.0
  0
VERTEX
  8
0
 10
3.439814814814815
 20
106.67245370370371
 30
0.0
  0
SEQEND
  0
TEXT
  8
0
 10
3.439814814814815
 20
106.50520833333334
 30
0.0
 40
0.16724537037037038
  1
LW-416(XXX)
  0
TEXT
  8
0
 10
3.439814814814815
 20
106.33796296296296
 30
0.0
 40
0.16724537037037038
  1
(42.5 * 42.5)
  0
POLYLINE
 62
256
  8
0
 66
1
 10
0.0
 20
0.0
 30
0.0
 70
9
  0
VERTEX
  8
0
 10
0.0
 20
111.58796296296296
 30
0.0
  0
VERTEX
  8
0
 10
1.5740740740740742
 20
111.58796296296296
 30
0.0
  0
VERTEX
  8
0
 10
1.5740740740740742
 20
113.16203703703704
 30
0.0
  0
VERTEX
  8
0
 10
0.0
 20
113.16203703703704
 30
0.0
  0
SEQEND
  0
TEXT
  8
0
 10
0.0
 20
113.00462962962963
 30
0.0
 40
0.1574074074074074
  1
LW-403(XXX)
  0
TEXT
  8
0
 10
0.0
 20
112.84722222222223
 30
0.0
 40
0.1574074074074074
  1
(40.0 * 40.0)
  0
POLYLINE
 62
256
  8
0
 66
1
 10
0.0
 20
0.0
 30
0.0
 70
9
  0
VERTEX
  8
0
 10
0.0
 20
126.0
 30
0.0
  0
VERTEX
  8
0
 10
8.5
 20
126.0
 30
0.0
  0
VERTEX
  8
0
 10
8.5
 20
137.0
 30
0.0
  0
VERTEX
  8
0
 10
0.0
 20
137.0
 30
0.0
  0
SEQEND
  0
POLYLINE
 62
256
  8
0
 66
1
 10
0.0
 20
0.0
 30
0.0
 70
9
  0
VERTEX
  8
0
 10
0.0
 20
126.0
 30
0.0
  0
VERTEX
  8
0
 10
3.5613425925925926
 20
126.0
 30
0.0
  0
VERTEX
  8
0
 10
3.5613425925925926
 20
129.73842592592592
 30
0.0
  0
VERTEX
  8
0
 10
0.0
 20
129.73842592592592
 30
0.0
  0
SEQEND
  0
TEXT
  8
0
 10
0.0
 20
129.38229166666667
 30
0.0
 40
0.3561342592592593
  1
B-130(XXX)
  0
TEXT
  8
0
 10
0.0
 20
129.0261574074074
 30
0.0
 40
0.3561342592592593
  1
(90.5 * 95.0)
  0
POLYLINE
 62
256
  8
0
 66
1
 10
0.0
 20
0.0
 30
0.0
 70
9
  0
VERTEX
  8
0
 10
4.061342592592593
 20
126.0
 30
0.0
  0
VERTEX
  8
0
 10
7.6030092592592595
 20
126.0
 30
0.0
  0
VERTEX
  8
0
 10
7.6030092592592595
 20
129.65972222222223
 30
0.0
  0
VERTEX
  8
0
 10
4.061342592592593
 20
129.65972222222223
 30
0.0
  0
SEQEND
  0
TEXT
  8
0
 10
4.061342592592593
 20
129.30555555555557
 30
0.0
 40
0.3541666666666667
  1
B-133(XXX)
  0
TEXT
  8
0
 10
4.061342592592593
 20
128.95138888888889
 30
0.0
 40
0.3541666666666667
  1
(90.0 * 93.0)
  0
POLYLINE
 62
256
  8
0
 66
1
 10
0.0
 20
0.0
 30
0.0
 70
9
  0
VERTEX
  8
0
 10
0.0
 20
130.23842592592592
 30
0.0
  0
VERTEX
  8
0
 10
3.541666666666667
 20
130.23842592592592
 30
0.0
  0
VERTEX
  8
0
 10
3.541666666666667
 20
133.78009259259258
 30
0.0
  0
VERTEX
  8
0
 10
0.0
 20
133.78009259259258
 30
0.0
  0
SEQEND
  0
TEXT
  8
0
 10
0.0
 20
133.42592592592592
 30
0.0
 40
0.3541666666666667
  1
B-119(XXX)
  0
TEXT
  8
0
 10
0.0
 20
133.07175925925924
 30
0.0
 40
0.3541666666666667
  1
(90.0 * 90.0)
  0
POLYLINE
 62
256
  8
0
 66
1
 10
0.0
 20
0.0
 30
0.0
 70
9
  0
VERTEX
  8
0
 10
4.041666666666667
 20
130.23842592592592
 30
0.0
  0
VERTEX
  8
0
 10
7.543981481481482
 20
130.23842592592592
 30
0.0
  0
VERTEX
  8
0
 10
7.543981481481482
 20
133.74074074074073
 30
0.0
  0
VERTEX
  8
0
 10
4.041666666666667
 20
133.74074074074073
 30
0.0
  0
SEQEND
  0
TEXT
  8
0
 10
4.041666666666667
 20
133.39050925925926
 30
0.0
 40
0.35023148148148153
  1
B-101(XXX)
  0
TEXT
  8
0
 10
4.041666666666667
 20
133.04027777777776
 30
0.0
 40
0.35023148148148153
  1
(89.0 * 89.0)
  0
POLYLINE
 62
256
  8
0
 66
1
 10
0.0
 20
0.0
 30
0.0
 70
9
  0
VERTEX
  8
0
 10
0.0
 20
147.0
 30
0.0
  0
VERTEX
  8
0
 10
8.5
 20
147.0
 30
0.0
  0
VERTEX
  8
0
 10
8.5
 20
158.0
 30
0.0
  0
VERTEX
  8
0
 10
0.0
 20
158.0
 30
0.0
  0
SEQEND
  0
POLYLINE
 62
256
  8
0
 66
1
 10
0.0
 20
0.0
 30
0.0
 70
9
  0
VERTEX
  8
0
 10
0.0
 20
147.0
 30
0.0
  0
VERTEX
  8
0
 10
3.2662037037037037
 20
147.0
 30
0.0
  0
VERTEX
  8
0
 10
3.2662037037037037
 20
150.2662037037037
 30
0.0
  0
VERTEX
  8
0
 10
0.0
 20
150.2662037037037
 30
0.0
  0
SEQEND
  0
TEXT
  8
0
 10
0.0
 20
149.93958333333333
 30
0.0
 40
0.3266203703703704
  1
B-102(XXX)
  0
TEXT
  8
0
 10
0.0
 20
149.61296296296297
 30
0.0
 40
0.3266203703703704
  1
(83.0 * 83.0)
  0
POLYLINE
 62
256
  8
0
 66
1
 10
0.0
 20
0.0
 30
0.0
 70
9
  0
VERTEX
  8
0
 10
0.0
 20
150.7662037037037
 30
0.0
  0
VERTEX
  8
0
 10
3.1481481481481484
 20
150.7662037037037
 30
0.0
  0
VERTEX
  8
0
 10
3.1481481481481484
 20
154.30787037037035
 30
0.0
  0
VERTEX
  8
0
 10
0.0
 20
154.30787037037035
 30
0.0
  0
SEQEND
  0
TEXT
  8
0
 10
0.0
 20
153.99305555555554
 30
0.0
 40
0.3148148148148148
  1
B-132(XXX)
  0
TEXT
  8
0
 10
0.0
 20
153.67824074074073
 30
0.0
 40
0.3148148148148148
  1
(80.0 * 90.0)
  0
POLYLINE
 62
256
  8
0
 66
1
 10
0.0
 20
0.0
 30
0.0
 70
9
  0
VERTEX
  8
0
 10
3.7662037037037037
 20
147.0
 30
0.0
  0
VERTEX
  8
0
 10
6.914351851851852
 20
147.0
 30
0.0
  0
VERTEX
  8
0
 10
6.914351851851852
 20
150.14814814814815
 30
0.0
  0
VERTEX
  8
0
 10
3.7662037037037037
 20
150.14814814814815
 30
0.0
  0
SEQEND
  0
TEXT
  8
0
 10
3.7662037037037037
 20
149.83333333333334
 30
0.0
 40
0.3148148148148148
  1
B-124(XXX)
  0
TEXT
  8
0
 10
3.7662037037037037
 20
149.51851851851853
 30
0.0
 40
0.3148148148148148
  1
(80.0 * 80.0)
  0
POLYLINE
 62
256
  8
0
 66
1
 10
0.0
 20
0.0
 30
0.0
 70
9
  0
VERTEX
  8
0
 10
3.6481481481481484
 20
150.7662037037037
 30
0.0
  0
VERTEX
  8
0
 10
6.796296296296297
 20
150.7662037037037
 30
0.0
  0
VERTEX
  8
0
 10
6.796296296296297
 20
153.83564814814815
 30
0.0
  0
VERTEX
  8
0
 10
3.6481481481481484
 20
153.83564814814815
 30
0.0
  0
SEQEND
  0
TEXT
  8
0
 10
3.6481481481481484
 20
153.52083333333334
 30
0.0
 40
0.3148148148148148
  1
B-107(XXX)
  0
TEXT
  8
0
 10
3.6481481481481484
 20
153.20601851851853
 30
0.0
 40
0.3148148148148148
  1
(80.0 * 78.0)
  0
POLYLINE
 62
256
  8
0
 66
1
 10
0.0
 20
0.0
 30
0.0
 70
9
  0
VERTEX
  8
0
 10
0.0
 20
168.0
 30
0.0
  0
VERTEX
  8
0
 10
8.5
 20
168.0
 30
0.0
  0
VERTEX
  8
0
 10
8.5
 20
179.0
 30
0.0
  0
VERTEX
  8
0
 10
0.0
 20
179.0
 30
0.0
  0
SEQEND
  0
POLYLINE
 62
256
  8
0
 66
1
 10
0.0
 20
0.0
 30
0.0
 70
9
  0
VERTEX
  8
0
 10
0.0
 20
168.0
 30
0.0
  0
VERTEX
  8
0
 10
2.990740740740741
 20
168.0
 30
0.0
  0
VERTEX
  8
0
 10
2.990740740740741
 20
171.62037037037038
 30
0.0
  0
VERTEX
  8
0
 10
0.0
 20
171.62037037037038
 30
0.0
  0
SEQEND
  0
TEXT
  8
0
 10
0.0
 20
171.3212962962963
 30
0.0
 40
0.29907407407407405
  1
B-127(XXX)
  0
TEXT
  8
0
 10
0.0
 20
171.02222222222224
 30
0.0
 40
0.29907407407407405
  1
(76.0 * 92.0)
  0
POLYLINE
 62
256
  8
0
 66
1
 10
0.0
 20
0.0
 30
0.0
 70
9
  0
VERTEX
  8
0
 10
3.490740740740741
 20
168.0
 30
0.0
  0
VERTEX
  8
0
 10
6.402777777777779
 20
168.0
 30
0.0
  0
VERTEX
  8
0
 10
6.402777777777779
 20
170.91203703703704
 30
0.0
  0
VERTEX
  8
0
 10
3.490740740740741
 20
170.91203703703704
 30
0.0
  0
SEQEND
  0
TEXT
  8
0
 10
3.490740740740741
 20
170.62083333333334
 30
0.0
 40
0.29120370370370374
  1
B-115(XXX)
  0
TEXT
  8
0
 10
3.490740740740741
 20
170.32962962962964
 30
0.0
 40
0.29120370370370374
  1
(74.0 * 74.0)
  0
POLYLINE
 62
256
  8
0
 66
1
 10
0.0
 20
0.0
 30
0.0
 70
9
  0
VERTEX
  8
0
 10
0.0
 20
172.12037037037038
 30
0.0
  0
VERTEX
  8
0
 10
2.8333333333333335
 20
172.12037037037038
 30
0.0
  0
VERTEX
  8
0
 10
2.8333333333333335
 20
175.7800925925926
 30
0.0
  0
VERTEX
  8
0
 10
0.0
 20
175.7800925925926
 30
0.0
  0
SEQEND
  0
TEXT
  8
0
 10
0.0
 20
175.49675925925928
 30
0.0
 40
0.2833333333333333
  1
B-105(XXX)
  0
TEXT
  8
0
 10
0.0
 20
175.21342592592595
 30
0.0
 40
0.2833333333333333
  1
(72.0 * 93.0)
  0
POLYLINE
 62
256
  8
0
 66
1
 10
0.0
 20
0.0
 30
0.0
 70
9
  0
VERTEX
  8
0
 10
3.3333333333333335
 20
172.12037037037038
 30
0.0
  0
VERTEX
  8
0
 10
6.166666666666667
 20
172.12037037037038
 30
0.0
  0
VERTEX
  8
0
 10
6.166666666666667
 20
175.70138888888889
 30
0.0
  0
VERTEX
  8
0
 10
3.3333333333333335
 20
175.70138888888889
 30
0.0
  0
SEQEND
  0
TEXT
  8
0
 10
3.3333333333333335
 20
175.41805555555555
 30
0.0
 40
0.2833333333333333
  1
B-122(XXX)
  0
TEXT
  8
0
 10
3.3333333333333335
 20
175.13472222222222
 30
0.0
 40
0.2833333333333333
  1
(72.0 * 91.0)
  0
POLYLINE
 62
256
  8
0
 66
1
 10
0.0
 20
0.0
 30
0.0
 70
9
  0
VERTEX
  8
0
 10
0.0
 20
189.0
 30
0.0
  0
VERTEX
  8
0
 10
8.5
 20
189.0
 30
0.0
  0
VERTEX
  8
0
 10
8.5
 20
200.0
 30
0.0
  0
VERTEX
  8
0
 10
0.0
 20
200.0
 30
0.0
  0
SEQEND
  0
POLYLINE
 62
256
  8
0
 66
1
 10
0.0
 20
0.0
 30
0.0
 70
9
  0
VERTEX
  8
0
 10
0.0
 20
189.0
 30
0.0
  0
VERTEX
  8
0
 10
2.8333333333333335
 20
189.0
 30
0.0
  0
VERTEX
  8
0
 10
2.8333333333333335
 20
192.46296296296296
 30
0.0
  0
VERTEX
  8
0
 10
0.0
 20
192.46296296296296
 30
0.0
  0
SEQEND
  0
TEXT
  8
0
 10
0.0
 20
192.17962962962963
 30
0.0
 40
0.2833333333333333
  1
B-110(XXX)
  0
TEXT
  8
0
 10
0.0
 20
191.8962962962963
 30
0.0
 40
0.2833333333333333
  1
(72.0 * 88.0)
  0
POLYLINE
 62
256
  8
0
 66
1
 10
0.0
 20
0.0
 30
0.0
 70
9
  0
VERTEX
  8
0
 10
3.3333333333333335
 20
189.0
 30
0.0
  0
VERTEX
  8
0
 10
6.166666666666667
 20
189.0
 30
0.0
  0
VERTEX
  8
0
 10
6.166666666666667
 20
191.83333333333334
 30
0.0
  0
VERTEX
  8
0
 10
3.3333333333333335
 20
191.83333333333334
 30
0.0
  0
SEQEND
  0
TEXT
  8
0
 10
3.3333333333333335
 20
191.55
 30
0.0
 40
0.2833333333333333
  1
LC-227(XXX)
  0
TEXT
  8
0
 10
3.3333333333333335
 20
191.26666666666668
 30
0.0
 40
0.2833333333333333
  1
(72.0 * 72.0)
  0
POLYLINE
 62
256
  8
0
 66
1
 10
0.0
 20
0.0
 30
0.0
 70
9
  0
VERTEX
  8
0
 10
0.0
 20
192.96296296296296
 30
0.0
  0
VERTEX
  8
0
 10
2.8333333333333335
 20
192.96296296296296
 30
0.0
  0
VERTEX
  8
0
 10
2.8333333333333335
 20
195.7962962962963
 30
0.0
  0
VERTEX
  8
0
 10
0.0
 20
195.7962962962963
 30
0.0
  0
SEQEND
  0
TEXT
  8
0
 10
0.0
 20
195.51296296296297
 30
0.0
 40
0.2833333333333333
  1
LW-411(XXX)
  0
TEXT
  8
0
 10
0.0
 20
195.22962962962964
 30
0.0
 40
0.2833333333333333
  1
(72.0 * 72.0)
  0
POLYLINE
 62
256
  8
0
 66
1
 10
0.0
 20
0.0
 30
0.0
 70
9
  0
VERTEX
  8
0
 10
3.3333333333333335
 20
192.96296296296296
 30
0.0
  0
VERTEX
  8
0
 10
6.087962962962964
 20
192.96296296296296
 30
0.0
  0
VERTEX
  8
0
 10
6.087962962962964
 20
195.71759259259258
 30
0.0
  0
VERTEX
  8
0
 10
3.3333333333333335
 20
195.71759259259258
 30
0.0
  0
SEQEND
  0
TEXT
  8
0
 10
3.3333333333333335
 20
195.44212962962962
 30
0.0
 40
0.27546296296296297
  1
B-104(XXX)
  0
TEXT
  8
0
 10
3.3333333333333335
 20
195.16666666666666
 30
0.0
 40
0.27546296296296297
  1
(70.0 * 70.0)
  0
POLYLINE
 62
256
  8
0
 66
1
 10
0.0
 20
0.0
 30
0.0
 70
9
  0
VERTEX
  8
0
 10
0.0
 20
210.0
 30
0.0
  0
VERTEX
  8
0
 10
8.5
 20
210.0
 30
0.0
  0
VERTEX
  8
0
 10
8.5
 20
221.0
 30
0.0
  0
VERTEX
  8
0
 10
0.0
 20
221.0
 30
0.0
  0
SEQEND
  0
POLYLINE
 62
256
  8
0
 66
1
 10
0.0
 20
0.0
 30
0.0
 70
9
  0
VERTEX
  8
0
 10
0.0
 20
210.0
 30
0.0
  0
VERTEX
  8
0
 10
2.7939814814814814
 20
210.0
 30
0.0
  0
VERTEX
  8
0
 10
2.7939814814814814
 20
213.1087962962963
 30
0.0
  0
VERTEX
  8
0
 10
0.0
 20
213.1087962962963
 30
0.0
  0
SEQEND
  0
TEXT
  8
0
 10
0.0
 20
212.82939814814816
 30
0.0
 40
0.2793981481481481
  1
B-106(XXX)
  0
TEXT
  8
0
 10
0.0
 20
212.55
 30
0.0
 40
0.2793981481481481
  1
(71.0 * 79.0)
  0
POLYLINE
 62
256
  8
0
 66
1
 10
0.0
 20
0.0
 30
0.0
 70
9
  0
VERTEX
  8
0
 10
0.0
 20
213.6087962962963
 30
0.0
  0
VERTEX
  8
0
 10
2.7546296296296298
 20
213.6087962962963
 30
0.0
  0
VERTEX
  8
0
 10
2.7546296296296298
 20
216.99305555555557
 30
0.0
  0
VERTEX
  8
0
 10
0.0
 20
216.99305555555557
 30
0.0
  0
SEQEND
  0
TEXT
  8
0
 10
0.0
 20
216.7175925925926
 30
0.0
 40
0.27546296296296297
  1
B-125(XXX)
  0
TEXT
  8
0
 10
0.0
 20
216.44212962962965
 30
0.0
 40
0.27546296296296297
  1
(70.0 * 86.0)
  0
POLYLINE
 62
256
  8
0
 66
1
 10
0.0
 20
0.0
 30
0.0
 70
9
  0
VERTEX
  8
0
 10
3.2546296296296298
 20
213.6087962962963
 30
0.0
  0
VERTEX
  8
0
 10
5.969907407407407
 20
213.6087962962963
 30
0.0
  0
VERTEX
  8
0
 10
5.969907407407407
 20
216.95370370370372
 30
0.0
  0
VERTEX
  8
0
 10
3.2546296296296298
 20
216.95370370370372
 30
0.0
  0
SEQEND
  0
TEXT
  8
0
 10
3.2546296296296298
 20
216.68217592592595
 30
0.0
 40
0.2715277777777778
  1
B-117(XXX)
  0
TEXT
  8
0
 10
3.2546296296296298
 20
216.41064814814817
 30
0.0
 40
0.2715277777777778
  1
(69.0 * 85.0)
  0
POLYLINE
 62
256
  8
0
 66
1
 10
0.0
 20
0.0
 30
0.0
 70
9
  0
VERTEX
  8
0
 10
3.2939814814814814
 20
210.0
 30
0.0
  0
VERTEX
  8
0
 10
5.930555555555555
 20
210.0
 30
0.0
  0
VERTEX
  8
0
 10
5.930555555555555
 20
213.06944444444446
 30
0.0
  0
VERTEX
  8
0
 10
3.2939814814814814
 20
213.06944444444446
 30
0.0
  0
SEQEND
  0
TEXT
  8
0
 10
3.2939814814814814
 20
212.80578703703705
 30
0.0
 40
0.2636574074074074
  1
B-111(XXX)
  0
TEXT
  8
0
 10
3.2939814814814814
 20
212.54212962962964
 30
0.0
 40
0.2636574074074074
  1
(67.0 * 78.0)
  0
POLYLINE
 62
256
  8
0
 66
1
 10
0.0
 20
0.0
 30
0.0
 70
9
  0
VERTEX
  8
0
 10
0.0
 20
231.0
 30
0.0
  0
VERTEX
  8
0
 10
8.5
 20
231.0
 30
0.0
  0
VERTEX
  8
0
 10
8.5
 20
242.0
 30
0.0
  0
VERTEX
  8
0
 10
0.0
 20
242.0
 30
0.0
  0
SEQEND
  0
POLYLINE
 62
256
  8
0
 66
1
 10
0.0
 20
0.0
 30
0.0
 70
9
  0
VERTEX
  8
0
 10
0.0
 20
231.0
 30
0.0
  0
VERTEX
  8
0
 10
2.5972222222222223
 20
231.0
 30
0.0
  0
VERTEX
  8
0
 10
2.5972222222222223
 20
234.42361111111111
 30
0.0
  0
VERTEX
  8
0
 10
0.0
 20
234.42361111111111
 30
0.0
  0
SEQEND
  0
TEXT
  8
0
 10
0.0
 20
234.1638888888889
 30
0.0
 40
0.25972222222222224
  1
B-120(XXX)
  0
TEXT
  8
0
 10
0.0
 20
233.90416666666667
 30
0.0
 40
0.25972222222222224
  1
(66.0 * 87.0)
  0
POLYLINE
 62
256
  8
0
 66
1
 10
0.0
 20
0.0
 30
0.0
 70
9
  0
VERTEX
  8
0
 10
3.0972222222222223
 20
231.0
 30
0.0
  0
VERTEX
  8
0
 10
5.694444444444445
 20
231.0
 30
0.0
  0
VERTEX
  8
0
 10
5.694444444444445
 20
234.22685185185185
 30
0.0
  0
VERTEX
  8
0
 10
3.0972222222222223
 20
234.22685185185185
 30
0.0
  0
SEQEND
  0
TEXT
  8
0
 10
3.0972222222222223
 20
233.96712962962962
 30
0.0
 40
0.25972222222222224
  1
B-114(XXX)
  0
TEXT
  8
0
 10
3.0972222222222223
 20
233.7074074074074
 30
0.0
 40
0.25972222222222224
  1
(66.0 * 82.0)
  0
POLYLINE
 62
256
  8
0
 66
1
 10
0.0
 20
0.0
 30
0.0
 70
9
  0
VERTEX
  8
0
 10
0.0
 20
234.92361111111111
 30
0.0
  0
VERTEX
  8
0
 10
2.5972222222222223
 20
234.92361111111111
 30
0.0
  0
VERTEX
  8
0
 10
2.5972222222222223
 20
237.75694444444446
 30
0.0
  0
VERTEX
  8
0
 10
0.0
 20
237.75694444444446
 30
0.0
  0
SEQEND
  0
TEXT
  8
0
 10
0.0
 20
237.49722222222223
 30
0.0
 40
0.25972222222222224
  1
B-134(XXX)
  0
TEXT
  8
0
 10
0.0
 20
237.2375
 30
0.0
 40
0.25972222222222224
  1
(66.0 * 72.0)
  0
POLYLINE
 62
256
  8
0
 66
1
 10
0.0
 20
0.0
 30
0.0
 70
9
  0
VERTEX
  8
0
 10
3.0972222222222223
 20
234.92361111111111
 30
0.0
  0
VERTEX
  8
0
 10
5.261574074074074
 20
234.92361111111111
 30
0.0
  0
VERTEX
  8
0
 10
5.261574074074074
 20
237.7175925925926
 30
0.0
  0
VERTEX
  8
0
 10
3.0972222222222223
 20
237.7175925925926
 30
0.0
  0
SEQEND
  0
TEXT
  8
0
 10
3.0972222222222223
 20
237.50115740740742
 30
0.0
 40
0.2164351851851852
  1
LC-216(XXX)
  0
TEXT
  8
0
 10
3.0972222222222223
 20
237.28472222222223
 30
0.0
 40
0.2164351851851852
  1
(55.0 * 71.0)
  0
POLYLINE
 62
256
  8
0
 66
1
 10
0.0
 20
0.0
 30
0.0
 70
9
  0
VERTEX
  8
0
 10
0.0
 20
252.0
 30
0.0
  0
VERTEX
  8
0
 10
8.5
 20
252.0
 30
0.0
  0
VERTEX
  8
0
 10
8.5
 20
263.0
 30
0.0
  0
VERTEX
  8
0
 10
0.0
 20
263.0
 30
0.0
  0
SEQEND
  0
POLYLINE
 62
256
  8
0
 66
1
 10
0.0
 20
0.0
 30
0.0
 70
9
  0
VERTEX
  8
0
 10
0.0
 20
252.0
 30
0.0
  0
VERTEX
  8
0
 10
2.5578703703703702
 20
252.0
 30
0.0
  0
VERTEX
  8
0
 10
2.5578703703703702
 20
255.14814814814815
 30
0.0
  0
VERTEX
  8
0
 10
0.0
 20
255.14814814814815
 30
0.0
  0
SEQEND
  0
TEXT
  8
0
 10
0.0
 20
254.89236111111111
 30
0.0
 40
0.25578703703703703
  1
LW-401(XXX)
  0
TEXT
  8
0
 10
0.0
 20
254.63657407407408
 30
0.0
 40
0.25578703703703703
  1
(65.0 * 80.0)
  0
POLYLINE
 62
256
  8
0
 66
1
 10
0.0
 20
0.0
 30
0.0
 70
9
  0
VERTEX
  8
0
 10
0.0
 20
255.64814814814815
 30
0.0
  0
VERTEX
  8
0
 10
2.439814814814815
 20
255.64814814814815
 30
0.0
  0
VERTEX
  8
0
 10
2.439814814814815
 20
258.9537037037037
 30
0.0
  0
VERTEX
  8
0
 10
0.0
 20
258.9537037037037
 30
0.0
  0
SEQEND
  0
TEXT
  8
0
 10
0.0
 20
258.70972222222224
 30
0.0
 40
0.2439814814814815
  1
B-123(XXX)
  0
TEXT
  8
0
 10
0.0
 20
258.4657407407407
 30
0.0
 40
0.2439814814814815
  1
(62.0 * 84.0)
  0
POLYLINE
 62
256
  8
0
 66
1
 10
0.0
 20
0.0
 30
0.0
 70
9
  0
VERTEX
  8
0
 10
3.0578703703703702
 20
252.0
 30
0.0
  0
VERTEX
  8
0
 10
5.497685185185185
 20
252.0
 30
0.0
  0
VERTEX
  8
0
 10
5.497685185185185
 20
254.91203703703704
 30
0.0
  0
VERTEX
  8
0
 10
3.0578703703703702
 20
254.91203703703704
 30
0.0
  0
SEQEND
  0
TEXT
  8
0
 10
3.0578703703703702
 20
254.66805555555555
 30
0.0
 40
0.2439814814814815
  1
LW-406(XXX)
  0
TEXT
  8
0
 10
3.0578703703703702
 20
254.42407407407407
 30
0.0
 40
0.2439814814814815
  1
(62.0 * 74.0)
  0
POLYLINE
 62
256
  8
0
 66
1
 10
0.0
 20
0.0
 30
0.0
 70
9
  0
VERTEX
  8
0
 10
2.939814814814815
 20
255.64814814814815
 30
0.0
  0
VERTEX
  8
0
 10
5.37962962962963
 20
255.64814814814815
 30
0.0
  0
VERTEX
  8
0
 10
5.37962962962963
 20
258.48148148148147
 30
0.0
  0
VERTEX
  8
0
 10
2.939814814814815
 20
258.48148148148147
 30
0.0
  0
SEQEND
  0
TEXT
  8
0
 10
2.939814814814815
 20
258.2375
 30
0.0
 40
0.2439814814814815
  1
B-126(XXX)
  0
TEXT
  8
0
 10
2.939814814814815
 20
257.9935185185185
 30
0.0
 40
0.2439814814814815
  1
(62.0 * 72.0)
  0
POLYLINE
 62
256
  8
0
 66
1
 10
0.0
 20
0.0
 30
0.0
 70
9
  0
VERTEX
  8
0
 10
0.0
 20
273.0
 30
0.0
  0
VERTEX
  8
0
 10
8.5
 20
273.0
 30
0.0
  0
VERTEX
  8
0
 10
8.5
 20
284.0
 30
0.0
  0
VERTEX
  8
0
 10
0.0
 20
284.0
 30
0.0
  0
SEQEND
  0
POLYLINE
 62
256
  8
0
 66
1
 10
0.0
 20
0.0
 30
0.0
 70
9
  0
VERTEX
  8
0
 10
0.0
 20
273.0
 30
0.0
  0
VERTEX
  8
0
 10
2.4004629629629632
 20
273.0
 30
0.0
  0
VERTEX
  8
0
 10
2.4004629629629632
 20
275.87268518518516
 30
0.0
  0
VERTEX
  8
0
 10
0.0
 20
275.87268518518516
 30
0.0
  0
SEQEND
  0
TEXT
  8
0
 10
0.0
 20
275.6326388888889
 30
0.0
 40
0.24004629629629629
  1
LC-225(XXX)
  0
TEXT
  8
0
 10
0.0
 20
275.39259259259256
 30
0.0
 40
0.24004629629629629
  1
(61.0 * 73.0)
  0
POLYLINE
 62
256
  8
0
 66
1
 10
0.0
 20
0.0
 30
0.0
 70
9
  0
VERTEX
  8
0
 10
2.9004629629629632
 20
273.0
 30
0.0
  0
VERTEX
  8
0
 10
5.28125
 20
273.0
 30
0.0
  0
VERTEX
  8
0
 10
5.28125
 20
275.85300925925924
 30
0.0
  0
VERTEX
  8
0
 10
2.9004629629629632
 20
275.85300925925924
 30
0.0
  0
SEQEND
  0
TEXT
  8
0
 10
2.9004629629629632
 20
275.61493055555553
 30
0.0
 40
0.2380787037037037
  1
LW-414(XXX)
  0
TEXT
  8
0
 10
2.9004629629629632
 20
275.3768518518518
 30
0.0
 40
0.2380787037037037
  1
(60.5 * 72.5)
  0
POLYLINE
 62
256
  8
0
 66
1
 10
0.0
 20
0.0
 30
0.0
 70
9
  0
VERTEX
  8
0
 10
0.0
 20
276.37268518518516
 30
0.0
  0
VERTEX
  8
0
 10
2.361111111111111
 20
276.37268518518516
 30
0.0
  0
VERTEX
  8
0
 10
2.361111111111111
 20
279.91435185185185
 30
0.0
  0
VERTEX
  8
0
 10
0.0
 20
279.91435185185185
 30
0.0
  0
SEQEND
  0
TEXT
  8
0
 10
0.0
 20
279.67824074074076
 30
0.0
 40
0.2361111111111111
  1
B-131(XXX)
  0
TEXT
  8
0
 10
0.0
 20
279.4421296296296
 30
0.0
 40
0.2361111111111111
  1
(60.0 * 90.0)
  0
POLYLINE
 62
256
  8
0
 66
1
 10
0.0
 20
0.0
 30
0.0
 70
9
  0
VERTEX
  8
0
 10
2.861111111111111
 20
276.37268518518516
 30
0.0
  0
VERTEX
  8
0
 10
5.222222222222222
 20
276.37268518518516
 30
0.0
  0
VERTEX
  8
0
 10
5.222222222222222
 20
279.6782407407407
 30
0.0
  0
VERTEX
  8
0
 10
2.861111111111111
 20
279.6782407407407
 30
0.0
  0
SEQEND
  0
TEXT
  8
0
 10
2.861111111111111
 20
279.4421296296296
 30
0.0
 40
0.2361111111111111
  1
LC-202(XXX)
  0
TEXT
  8
0
 10
2.861111111111111
 20
279.2060185185185
 30
0.0
 40
0.2361111111111111
  1
(60.0 * 84.0)
  0
POLYLINE
 62
256
  8
0
 66
1
 10
0.0
 20
0.0
 30
0.0
 70
9
  0
VERTEX
  8
0
 10
0.0
 20
294.0
 30
0.0
  0
VERTEX
  8
0
 10
8.5
 20
294.0
 30
0.0
  0
VERTEX
  8
0
 10
8.5
 20
305.0
 30
0.0
  0
VERTEX
  8
0
 10
0.0
 20
305.0
 30
0.0
  0
SEQEND
  0
POLYLINE
 62
256
  8
0
 66
1
 10
0.0
 20
0.0
 30
0.0
 70
9
  0
VERTEX
  8
0
 10
0.0
 20
294.0
 30
0.0
  0
VERTEX
  8
0
 10
2.361111111111111
 20
294.0
 30
0.0
  0
VERTEX
  8
0
 10
2.361111111111111
 20
296.912037037037
 30
0.0
  0
VERTEX
  8
0
 10
0.0
 20
296.912037037037
 30
0.0
  0
SEQEND
  0
TEXT
  8
0
 10
0.0
 20
296.6759259259259
 30
0.0
 40
0.2361111111111111
  1
LC-226(XXX)
  0
TEXT
  8
0
 10
0.0
 20
296.4398148148148
 30
0.0
 40
0.2361111111111111
  1
(60.0 * 74.0)
  0
POLYLINE
 62
256
  8
0
 66
1
 10
0.0
 20
0.0
 30
0.0
 70
9
  0
VERTEX
  8
0
 10
0.0
 20
297.412037037037
 30
0.0
  0
VERTEX
  8
0
 10
2.2824074074074074
 20
297.412037037037
 30
0.0
  0
VERTEX
  8
0
 10
2.2824074074074074
 20
300.40277777777777
 30
0.0
  0
VERTEX
  8
0
 10
0.0
 20
300.40277777777777
 30
0.0
  0
SEQEND
  0
TEXT
  8
0
 10
0.0
 20
300.17453703703706
 30
0.0
 40
0.22824074074074074
  1
LC-228(XXX)
  0
TEXT
  8
0
 10
0.0
 20
299.9462962962963
 30
0.0
 40
0.22824074074074074
  1
(58.0 * 76.0)
  0
POLYLINE
 62
256
  8
0
 66
1
 10
0.0
 20
0.0
 30
0.0
 70
9
  0
VERTEX
  8
0
 10
2.861111111111111
 20
294.0
 30
0.0
  0
VERTEX
  8
0
 10
5.104166666666667
 20
294.0
 30
0.0
  0
VERTEX
  8
0
 10
5.104166666666667
 20
296.87268518518516
 30
0.0
  0
VERTEX
  8
0
 10
2.861111111111111
 20
296.87268518518516
 30
0.0
  0
SEQEND
  0
TEXT
  8
0
 10
2.861111111111111
 20
296.64837962962963
 30
0.0
 40
0.22430555555555556
  1
LC-223(XXX)
  0
TEXT
  8
0
 10
2.861111111111111
 20
296.42407407407404
 30
0.0
 40
0.22430555555555556
  1
(57.0 * 73.0)
  0
POLYLINE
 62
256
  8
0
 66
1
 10
0.0
 20
0.0
 30
0.0
 70
9
  0
VERTEX
  8
0
 10
2.7824074074074074
 20
297.412037037037
 30
0.0
  0
VERTEX
  8
0
 10
4.986111111111111
 20
297.412037037037
 30
0.0
  0
VERTEX
  8
0
 10
4.986111111111111
 20
300.2847222222222
 30
0.0
  0
VERTEX
  8
0
 10
2.7824074074074074
 20
300.2847222222222
 30
0.0
  0
SEQEND
  0
TEXT
  8
0
 10
2.7824074074074074
 20
300.0643518518518
 30
0.0
 40
0.22037037037037036
  1
LC-222(XXX)
  0
TEXT
  8
0
 10
2.7824074074074074
 20
299.8439814814814
 30
0.0
 40
0.22037037037037036
  1
(56.0 * 73.0)
  0
POLYLINE
 62
256
  8
0
 66
1
 10
0.0
 20
0.0
 30
0.0
 70
9
  0
VERTEX
  8
0
 10
0.0
 20
315.0
 30
0.0
  0
VERTEX
  8
0
 10
8.5
 20
315.0
 30
0.0
  0
VERTEX
  8
0
 10
8.5
 20
326.0
 30
0.0
  0
VERTEX
  8
0
 10
0.0
 20
326.0
 30
0.0
  0
SEQEND
  0
POLYLINE
 62
256
  8
0
 66
1
 10
0.0
 20
0.0
 30
0.0
 70
9
  0
VERTEX
  8
0
 10
0.0
 20
315.0
 30
0.0
  0
VERTEX
  8
0
 10
2.125
 20
315.0
 30
0.0
  0
VERTEX
  8
0
 10
2.125
 20
317.7546296296296
 30
0.0
  0
VERTEX
  8
0
 10
0.0
 20
317.7546296296296
 30
0.0
  0
SEQEND
  0
TEXT
  8
0
 10
0.0
 20
317.54212962962964
 30
0.0
 40
0.21250000000000002
  1
LC-234(XXX)
  0
TEXT
  8
0
 10
0.0
 20
317.3296296296296
 30
0.0
 40
0.21250000000000002
  1
(54.0 * 70.0)
  0
POLYLINE
 62
256
  8
0
 66
1
 10
0.0
 20
0.0
 30
0.0
 70
9
  0
VERTEX
  8
0
 10
0.0
 20
318.2546296296296
 30
0.0
  0
VERTEX
  8
0
 10
2.0856481481481484
 20
318.2546296296296
 30
0.0
  0
VERTEX
  8
0
 10
2.0856481481481484
 20
321.3240740740741
 30
0.0
  0
VERTEX
  8
0
 10
0.0
 20
321.3240740740741
 30
0.0
  0
SEQEND
  0
TEXT
  8
0
 10
0.0
 20
321.1155092592593
 30
0.0
 40
0.20856481481481481
  1
B-128(XXX)
  0
TEXT
  8
0
 10
0.0
 20
320.90694444444443
 30
0.0
 40
0.20856481481481481
  1
(53.0 * 78.0)
  0
POLYLINE
 62
256
  8
0
 66
1
 10
0.0
 20
0.0
 30
0.0
 70
9
  0
VERTEX
  8
0
 10
2.5856481481481484
 20
318.2546296296296
 30
0.0
  0
VERTEX
  8
0
 10
4.5925925925925934
 20
318.2546296296296
 30
0.0
  0
VERTEX
  8
0
 10
4.5925925925925934
 20
321.1273148148148
 30
0.0
  0
VERTEX
  8
0
 10
2.5856481481481484
 20
321.1273148148148
 30
0.0
  0
SEQEND
  0
TEXT
  8
0
 10
2.5856481481481484
 20
320.92662037037036
 30
0.0
 40
0.20069444444444443
  1
LC-203(XXX)
  0
TEXT
  8
0
 10
2.5856481481481484
 20
320.7259259259259
 30
0.0
 40
0.20069444444444443
  1
(51.0 * 73.0)
  0
POLYLINE
 62
256
  8
0
 66
1
 10
0.0
 20
0.0
 30
0.0
 70
9
  0
VERTEX
  8
0
 10
2.625
 20
315.0
 30
0.0
  0
VERTEX
  8
0
 10
5.340277777777778
 20
315.0
 30
0.0
  0
VERTEX
  8
0
 10
5.340277777777778
 20
317.71527777777777
 30
0.0
  0
VERTEX
  8
0
 10
2.625
 20
317.71527777777777
 30
0.0
  0
SEQEND
  0
TEXT
  8
0
 10
2.625
 20
317.44374999999997
 30
0.0
 40
0.2715277777777778
  1
LW-413(XXX)
  0
TEXT
  8
0
 10
2.625
 20
317.1722222222222
 30
0.0
 40
0.2715277777777778
  1
(69.0 * 69.0)
  0
POLYLINE
 62
256
  8
0
 66
1
 10
0.0
 20
0.0
 30
0.0
 70
9
  0
VERTEX
  8
0
 10
0.0
 20
336.0
 30
0.0
  0
VERTEX
  8
0
 10
8.5
 20
336.0
 30
0.0
  0
VERTEX
  8
0
 10
8.5
 20
347.0
 30
0.0
  0
VERTEX
  8
0
 10
0.0
 20
347.0
 30
0.0
  0
SEQEND
  0
POLYLINE
 62
256
  8
0
 66
1
 10
0.0
 20
0.0
 30
0.0
 70
9
  0
VERTEX
  8
0
 10
0.0
 20
336.0
 30
0.0
  0
VERTEX
  8
0
 10
2.695601851851852
 20
336.0
 30
0.0
  0
VERTEX
  8
0
 10
2.695601851851852
 20
338.69560185185185
 30
0.0
  0
VERTEX
  8
0
 10
0.0
 20
338.69560185185185
 30
0.0
  0
SEQEND
  0
TEXT
  8
0
 10
0.0
 20
338.42604166666666
 30
0.0
 40
0.26956018518518515
  1
LC-230(XXX)
  0
TEXT
  8
0
 10
0.0
 20
338.1564814814815
 30
0.0
 40
0.26956018518518515
  1
(68.5 * 68.5)
  0
POLYLINE
 62
256
  8
0
 66
1
 10
0.0
 20
0.0
 30
0.0
 70
9
  0
VERTEX
  8
0
 10
3.195601851851852
 20
336.0
 30
0.0
  0
VERTEX
  8
0
 10
5.792824074074074
 20
336.0
 30
0.0
  0
VERTEX
  8
0
 10
5.792824074074074
 20
337.9675925925926
 30
0.0
  0
VERTEX
  8
0
 10
3.195601851851852
 20
337.9675925925926
 30
0.0
  0
SEQEND
  0
TEXT
  8
0
 10
3.195601851851852
 20
337.7078703703704
 30
0.0
 40
0.25972222222222224
  1
LW-430(XXX)
  0
TEXT
  8
0
 10
3.195601851851852
 20
337.44814814814816
 30
0.0
 40
0.25972222222222224
  1
(66.0 * 50.0)
  0
POLYLINE
 62
256
  8
0
 66
1
 10
0.0
 20
0.0
 30
0.0
 70
9
  0
VERTEX
  8
0
 10
0.0
 20
339.19560185185185
 30
0.0
  0
VERTEX
  8
0
 10
2.5578703703703702
 20
339.19560185185185
 30
0.0
  0
VERTEX
  8
0
 10
2.5578703703703702
 20
341.75347222222223
 30
0.0
  0
VERTEX
  8
0
 10
0.0
 20
341.75347222222223
 30
0.0
  0
SEQEND
  0
TEXT
  8
0
 10
0.0
 20
341.4976851851852
 30
0.0
 40
0.25578703703703703
  1
LW-402(XXX)
  0
TEXT
  8
0
 10
0.0
 20
341.24189814814815
 30
0.0
 40
0.25578703703703703
  1
(65.0 * 65.0)
  0
POLYLINE
 62
256
  8
0
 66
1
 10
0.0
 20
0.0
 30
0.0
 70
9
  0
VERTEX
  8
0
 10
3.0578703703703702
 20
339.19560185185185
 30
0.0
  0
VERTEX
  8
0
 10
5.537037037037037
 20
339.19560185185185
 30
0.0
  0
VERTEX
  8
0
 10
5.537037037037037
 20
341.67476851851853
 30
0.0
  0
VERTEX
  8
0
 10
3.0578703703703702
 20
341.67476851851853
 30
0.0
  0
SEQEND
  0
TEXT
  8
0
 10
3.0578703703703702
 20
341.4268518518519
 30
0.0
 40
0.24791666666666667
  1
LW-407(XXX)
  0
TEXT
  8
0
 10
3.0578703703703702
 20
341.1789351851852
 30
0.0
 40
0.24791666666666667
  1
(63.0 * 63.0)
  0
POLYLINE
 62
256
  8
0
 66
1
 10
0.0
 20
0.0
 30
0.0
 70
9
  0
VERTEX
  8
0
 10
0.0
 20
342.25347222222223
 30
0.0
  0
VERTEX
  8
0
 10
1.1412037037037037
 20
342.25347222222223
 30
0.0
  0
VERTEX
  8
0
 10
1.1412037037037037
 20
343.2766203703704
 30
0.0
  0
VERTEX
  8
0
 10
0.0
 20
343.2766203703704
 30
0.0
  0
SEQEND
  0
TEXT
  8
0
 10
0.0
 20
343.1625
 30
0.0
 40
0.11412037037037037
  1
SW-305(XXX)
  0
TEXT
  8
0
 10
0.0
 20
343.04837962962966
 30
0.0
 40
0.11412037037037037
  1
(29.0 * 26.0)
  0
POLYLINE
 62
256
  8
0
 66
1
 10
0.0
 20
0.0
 30
0.0
 70
9
  0
VERTEX
  8
0
 10
0.0
 20
357.0
 30
0.0
  0
VERTEX
  8
0
 10
8.5
 20
357.0
 30
0.0
  0
VERTEX
  8
0
 10
8.5
 20
368.0
 30
0.0
  0
VERTEX
  8
0
 10
0.0
 20
368.0
 30
0.0
  0
SEQEND
  0
POLYLINE
 62
256
  8
0
 66
1
 10
0.0
 20
0.0
 30
0.0
 70
9
  0
VERTEX
  8
0
 10
0.0
 20
357.0
 30
0.0
  0
VERTEX
  8
0
 10
2.439814814814815
 20
357.0
 30
0.0
  0
VERTEX
  8
0
 10
2.439814814814815
 20
359.43981481481484
 30
0.0
  0
VERTEX
  8
0
 10
0.0
 20
359.43981481481484
 30
0.0
  0
SEQEND
  0
TEXT
  8
0
 10
0.0
 20
359.1958333333334
 30
0.0
 40
0.2439814814814815
  1
LC-219(XXX)
  0
TEXT
  8
0
 10
0.0
 20
358.95185185185187
 30
0.0
 40
0.2439814814814815
  1
(62.0 * 62.0)
  0
POLYLINE
 62
256
  8
0
 66
1
 10
0.0
 20
0.0
 30
0.0
 70
9
  0
VERTEX
  8
0
 10
0.0
 20
359.93981481481484
 30
0.0
  0
VERTEX
  8
0
 10
2.361111111111111
 20
359.93981481481484
 30
0.0
  0
VERTEX
  8
0
 10
2.361111111111111
 20
362.3796296296297
 30
0.0
  0
VERTEX
  8
0
 10
0.0
 20
362.3796296296297
 30
0.0
  0
SEQEND
  0
TEXT
  8
0
 10
0.0
 20
362.1435185185186
 30
0.0
 40
0.2361111111111111
  1
B-116(XXX)
  0
TEXT
  8
0
 10
0.0
 20
361.90740740740745
 30
0.0
 40
0.2361111111111111
  1
(60.0 * 62.0)
  0
POLYLINE
 62
256
  8
0
 66
1
 10
0.0
 20
0.0
 30
0.0
 70
9
  0
VERTEX
  8
0
 10
2.939814814814815
 20
357.0
 30
0.0
  0
VERTEX
  8
0
 10
5.300925925925926
 20
357.0
 30
0.0
  0
VERTEX
  8
0
 10
5.300925925925926
 20
359.3611111111111
 30
0.0
  0
VERTEX
  8
0
 10
2.939814814814815
 20
359.3611111111111
 30
0.0
  0
SEQEND
  0
TEXT
  8
0
 10
2.939814814814815
 20
359.125
 30
0.0
 40
0.2361111111111111
  1
LC-231(XXX)
  0
TEXT
  8
0
 10
2.939814814814815
 20
358.88888888888886
 30
0.0
 40
0.2361111111111111
  1
(60.0 * 60.0)
  0
POLYLINE
 62
256
  8
0
 66
1
 10
0.0
 20
0.0
 30
0.0
 70
9
  0
VERTEX
  8
0
 10
2.861111111111111
 20
359.93981481481484
 30
0.0
  0
VERTEX
  8
0
 10
5.143518518518519
 20
359.93981481481484
 30
0.0
  0
VERTEX
  8
0
 10
5.143518518518519
 20
362.22222222222223
 30
0.0
  0
VERTEX
  8
0
 10
2.861111111111111
 20
362.22222222222223
 30
0.0
  0
SEQEND
  0
TEXT
  8
0
 10
2.861111111111111
 20
361.9939814814815
 30
0.0
 40
0.22824074074074074
  1
LW-425(XXX)
  0
TEXT
  8
0
 10
2.861111111111111
 20
361.76574074074074
 30
0.0
 40
0.22824074074074074
  1
(58.0 * 58.0)
  0
POLYLINE
 62
256
  8
0
 66
1
 10
0.0
 20
0.0
 30
0.0
 70
9
  0
VERTEX
  8
0
 10
0.0
 20
362.8796296296296
 30
0.0
  0
VERTEX
  8
0
 10
1.652777777777778
 20
362.8796296296296
 30
0.0
  0
VERTEX
  8
0
 10
1.652777777777778
 20
364.5324074074074
 30
0.0
  0
VERTEX
  8
0
 10
0.0
 20
364.5324074074074
 30
0.0
  0
SEQEND
  0
TEXT
  8
0
 10
0.0
 20
364.36712962962963
 30
0.0
 40
0.1652777777777778
  1
LW-424(XXX)
  0
TEXT
  8
0
 10
0.0
 20
364.2018518518518
 30
0.0
 40
0.1652777777777778
  1
(42.0 * 42.0)
  0
POLYLINE
 62
256
  8
0
 66
1
 10
0.0
 20
0.0
 30
0.0
 70
9
  0
VERTEX
  8
0
 10
2.1527777777777777
 20
362.8796296296296
 30
0.0
  0
VERTEX
  8
0
 10
3.726851851851852
 20
362.8796296296296
 30
0.0
  0
VERTEX
  8
0
 10
3.726851851851852
 20
364.4537037037037
 30
0.0
  0
VERTEX
  8
0
 10
2.1527777777777777
 20
364.4537037037037
 30
0.0
  0
SEQEND
  0
TEXT
  8
0
 10
2.1527777777777777
 20
364.2962962962963
 30
0.0
 40
0.1574074074074074
  1
LW-408(XXX)
  0
TEXT
  8
0
 10
2.1527777777777777
 20
364.13888888888886
 30
0.0
 40
0.1574074074074074
  1
(40.0 * 40.0)
  0
POLYLINE
 62
256
  8
0
 66
1
 10
0.0
 20
0.0
 30
0.0
 70
9
  0
VERTEX
  8
0
 10
0.0
 20
378.0
 30
0.0
  0
VERTEX
  8
0
 10
8.5
 20
378.0
 30
0.0
  0
VERTEX
  8
0
 10
8.5
 20
389.0
 30
0.0
  0
VERTEX
  8
0
 10
0.0
 20
389.0
 30
0.0
  0
SEQEND
  0
POLYLINE
 62
256
  8
0
 66
1
 10
0.0
 20
0.0
 30
0.0
 70
9
  0
VERTEX
  8
0
 10
0.0
 20
378.0
 30
0.0
  0
VERTEX
  8
0
 10
2.2824074074074074
 20
378.0
 30
0.0
  0
VERTEX
  8
0
 10
2.2824074074074074
 20
380.2824074074074
 30
0.0
  0
VERTEX
  8
0
 10
0.0
 20
380.2824074074074
 30
0.0
  0
SEQEND
  0
TEXT
  8
0
 10
0.0
 20
380.0541666666667
 30
0.0
 40
0.22824074074074074
  1
LW-433(XXX)
  0
TEXT
  8
0
 10
0.0
 20
379.8259259259259
 30
0.0
 40
0.22824074074074074
  1
(58.0 * 58.0)
  0
POLYLINE
 62
256
  8
0
 66
1
 10
0.0
 20
0.0
 30
0.0
 70
9
  0
VERTEX
  8
0
 10
0.0
 20
380.7824074074074
 30
0.0
  0
VERTEX
  8
0
 10
2.164351851851852
 20
380.7824074074074
 30
0.0
  0
VERTEX
  8
0
 10
2.164351851851852
 20
383.49768518518516
 30
0.0
  0
VERTEX
  8
0
 10
0.0
 20
383.49768518518516
 30
0.0
  0
SEQEND
  0
TEXT
  8
0
 10
0.0
 20
383.28125
 30
0.0
 40
0.2164351851851852
  1
LC-229(XXX)
  0
TEXT
  8
0
 10
0.0
 20
383.0648148148148
 30
0.0
 40
0.2164351851851852
  1
(55.0 * 69.0)
  0
POLYLINE
 62
256
  8
0
 66
1
 10
0.0
 20
0.0
 30
0.0
 70
9
  0
VERTEX
  8
0
 10
2.664351851851852
 20
380.7824074074074
 30
0.0
  0
VERTEX
  8
0
 10
4.789351851851852
 20
380.7824074074074
 30
0.0
  0
VERTEX
  8
0
 10
4.789351851851852
 20
383.1435185185185
 30
0.0
  0
VERTEX
  8
0
 10
2.664351851851852
 20
383.1435185185185
 30
0.0
  0
SEQEND
  0
TEXT
  8
0
 10
2.664351851851852
 20
382.9310185185185
 30
0.0
 40
0.21250000000000002
  1
LW-419(XXX)
  0
TEXT
  8
0
 10
2.664351851851852
 20
382.71851851851847
 30
0.0
 40
0.21250000000000002
  1
(54.0 * 60.0)
  0
POLYLINE
 62
256
  8
0
 66
1
 10
0.0
 20
0.0
 30
0.0
 70
9
  0
VERTEX
  8
0
 10
2.7824074074074074
 20
378.0
 30
0.0
  0
VERTEX
  8
0
 10
4.907407407407407
 20
378.0
 30
0.0
  0
VERTEX
  8
0
 10
4.907407407407407
 20
380.125
 30
0.0
  0
VERTEX
  8
0
 10
2.7824074074074074
 20
380.125
 30
0.0
  0
SEQEND
  0
TEXT
  8
0
 10
2.7824074074074074
 20
379.9125
 30
0.0
 40
0.21250000000000002
  1
LW-434(XXX)
  0
TEXT
  8
0
 10
2.7824074074074074
 20
379.7
 30
0.0
 40
0.21250000000000002
  1
(54.0 * 54.0)
  0
POLYLINE
 62
256
  8
0
 66
1
 10
0.0
 20
0.0
 30
0.0
 70
9
  0
VERTEX
  8
0
 10
0.0
 20
383.99768518518516
 30
0.0
  0
VERTEX
  8
0
 10
1.652777777777778
 20
383.99768518518516
 30
0.0
  0
VERTEX
  8
0
 10
1.652777777777778
 20
385.65046296296293
 30
0.0
  0
VERTEX
  8
0
 10
0.0
 20
385.65046296296293
 30
0.0
  0
SEQEND
  0
TEXT
  8
0
 10
0.0
 20
385.4851851851852
 30
0.0
 40
0.1652777777777778
  1
LW-432(XXX)
  0
TEXT
  8
0
 10
0.0
 20
385.31990740740736
 30
0.0
 40
0.1652777777777778
  1
(42.0 * 42.0)
  0
POLYLINE
 62
256
  8
0
 66
1
 10
0.0
 20
0.0
 30
0.0
 70
9
  0
VERTEX
  8
0
 10
2.1527777777777777
 20
383.99768518518516
 30
0.0
  0
VERTEX
  8
0
 10
3.726851851851852
 20
383.99768518518516
 30
0.0
  0
VERTEX
  8
0
 10
3.726851851851852
 20
385.57175925925924
 30
0.0
  0
VERTEX
  8
0
 10
2.1527777777777777
 20
385.57175925925924
 30
0.0
  0
SEQEND
  0
TEXT
  8
0
 10
2.1527777777777777
 20
385.41435185185185
 30
0.0
 40
0.1574074074074074
  1
LW-418(XXX)
  0
TEXT
  8
0
 10
2.1527777777777777
 20
385.2569444444444
 30
0.0
 40
0.1574074074074074
  1
(40.0 * 40.0)
  0
POLYLINE
 62
256
  8
0
 66
1
 10
0.0
 20
0.0
 30
0.0
 70
9
  0
VERTEX
  8
0
 10
0.0
 20
399.0
 30
0.0
  0
VERTEX
  8
0
 10
8.5
 20
399.0
 30
0.0
  0
VERTEX
  8
0
 10
8.5
 20
410.0
 30
0.0
  0
VERTEX
  8
0
 10
0.0
 20
410.0
 30
0.0
  0
SEQEND
  0
POLYLINE
 62
256
  8
0
 66
1
 10
0.0
 20
0.0
 30
0.0
 70
9
  0
VERTEX
  8
0
 10
0.0
 20
399.0
 30
0.0
  0
VERTEX
  8
0
 10
2.0462962962962963
 20
399.0
 30
0.0
  0
VERTEX
  8
0
 10
2.0462962962962963
 20
401.0462962962963
 30
0.0
  0
VERTEX
  8
0
 10
0.0
 20
401.0462962962963
 30
0.0
  0
SEQEND
  0
TEXT
  8
0
 10
0.0
 20
400.8416666666667
 30
0.0
 40
0.20462962962962963
  1
LW-405(XXX)
  0
TEXT
  8
0
 10
0.0
 20
400.63703703703703
 30
0.0
 40
0.20462962962962963
  1
(52.0 * 52.0)
  0
POLYLINE
 62
256
  8
0
 66
1
 10
0.0
 20
0.0
 30
0.0
 70
9
  0
VERTEX
  8
0
 10
0.0
 20
401.5462962962963
 30
0.0
  0
VERTEX
  8
0
 10
2.0069444444444446
 20
401.5462962962963
 30
0.0
  0
VERTEX
  8
0
 10
2.0069444444444446
 20
403.9074074074074
 30
0.0
  0
VERTEX
  8
0
 10
0.0
 20
403.9074074074074
 30
0.0
  0
SEQEND
  0
TEXT
  8
0
 10
0.0
 20
403.70671296296297
 30
0.0
 40
0.20069444444444443
  1
LC-217(XXX)
  0
TEXT
  8
0
 10
0.0
 20
403.5060185185185
 30
0.0
 40
0.20069444444444443
  1
(51.0 * 60.0)
  0
POLYLINE
 62
256
  8
0
 66
1
 10
0.0
 20
0.0
 30
0.0
 70
9
  0
VERTEX
  8
0
 10
2.5462962962962963
 20
399.0
 30
0.0
  0
VERTEX
  8
0
 10
4.5532407407407405
 20
399.0
 30
0.0
  0
VERTEX
  8
0
 10
4.5532407407407405
 20
401.00694444444446
 30
0.0
  0
VERTEX
  8
0
 10
2.5462962962962963
 20
401.00694444444446
 30
0.0
  0
SEQEND
  0
TEXT
  8
0
 10
2.5462962962962963
 20
400.80625000000003
 30
0.0
 40
0.20069444444444443
  1
LW-412(XXX)
  0
TEXT
  8
0
 10
2.5462962962962963
 20
400.60555555555555
 30
0.0
 40
0.20069444444444443
  1
(51.0 * 51.0)
  0
POLYLINE
 62
256
  8
0
 66
1
 10
0.0
 20
0.0
 30
0.0
 70
9
  0
VERTEX
  8
0
 10
0.0
 20
404.4074074074074
 30
0.0
  0
VERTEX
  8
0
 10
1.9675925925925926
 20
404.4074074074074
 30
0.0
  0
VERTEX
  8
0
 10
1.9675925925925926
 20
406.7685185185185
 30
0.0
  0
VERTEX
  8
0
 10
0.0
 20
406.7685185185185
 30
0.0
  0
SEQEND
  0
TEXT
  8
0
 10
0.0
 20
406.57175925925924
 30
0.0
 40
0.19675925925925927
  1
LC-218(XXX)
  0
TEXT
  8
0
 10
0.0
 20
406.37499999999994
 30
0.0
 40
0.19675925925925927
  1
(50.0 * 60.0)
  0
POLYLINE
 62
256
  8
0
 66
1
 10
0.0
 20
0.0
 30
0.0
 70
9
  0
VERTEX
  8
0
 10
2.5069444444444446
 20
401.5462962962963
 30
0.0
  0
VERTEX
  8
0
 10
4.435185185185185
 20
401.5462962962963
 30
0.0
  0
VERTEX
  8
0
 10
4.435185185185185
 20
403.494212962963
 30
0.0
  0
VERTEX
  8
0
 10
2.5069444444444446
 20
403.494212962963
 30
0.0
  0
SEQEND
  0
TEXT
  8
0
 10
2.5069444444444446
 20
403.30138888888894
 30
0.0
 40
0.1928240740740741
  1
LW-417(XXX)
  0
TEXT
  8
0
 10
2.5069444444444446
 20
403.1085648148148
 30
0.0
 40
0.1928240740740741
  1
(49.0 * 49.5)
  0
POLYLINE
 62
256
  8
0
 66
1
 10
0.0
 20
0.0
 30
0.0
 70
9
  0
VERTEX
  8
0
 10
2.4675925925925926
 20
404.4074074074074
 30
0.0
  0
VERTEX
  8
0
 10
4.356481481481481
 20
404.4074074074074
 30
0.0
  0
VERTEX
  8
0
 10
4.356481481481481
 20
406.6898148148148
 30
0.0
  0
VERTEX
  8
0
 10
2.4675925925925926
 20
406.6898148148148
 30
0.0
  0
SEQEND
  0
TEXT
  8
0
 10
2.4675925925925926
 20
406.5009259259259
 30
0.0
 40
0.18888888888888888
  1
LC-233(XXX)
  0
TEXT
  8
0
 10
2.4675925925925926
 20
406.312037037037
 30
0.0
 40
0.18888888888888888
  1
(48.0 * 58.0)
  0
POLYLINE
 62
256
  8
0
 66
1
 10
0.0
 20
0.0
 30
0.0
 70
9
  0
VERTEX
  8
0
 10
4.856481481481481
 20
404.4074074074074
 30
0.0
  0
VERTEX
  8
0
 10
5.446759259259259
 20
404.4074074074074
 30
0.0
  0
VERTEX
  8
0
 10
5.446759259259259
 20
404.99768518518516
 30
0.0
  0
VERTEX
  8
0
 10
4.856481481481481
 20
404.99768518518516
 30
0.0
  0
SEQEND
  0
TEXT
  8
0
 10
4.856481481481481
 20
404.9386574074074
 30
0.0
 40
0.059027777777777776
  1
SW-302(XXX)
  0
TEXT
  8
0
 10
4.856481481481481
 20
404.8796296296296
 30
0.0
 40
0.059027777777777776
  1
(15.0 * 15.0)
  0
POLYLINE
 62
256
  8
0
 66
1
 10
0.0
 20
0.0
 30
0.0
 70
9
  0
VERTEX
  8
0
 10
4.935185185185185
 20
401.5462962962963
 30
0.0
  0
VERTEX
  8
0
 10
5.407407407407407
 20
401.5462962962963
 30
0.0
  0
VERTEX
  8
0
 10
5.407407407407407
 20
402.01851851851853
 30
0.0
  0
VERTEX
  8
0
 10
4.935185185185185
 20
402.01851851851853
 30
0.0
  0
SEQEND
  0
TEXT
  8
0
 10
4.935185185185185
 20
401.9712962962963
 30
0.0
 40
0.04722222222222222
  1
SW-304(XXX)
  0
TEXT
  8
0
 10
4.935185185185185
 20
401.9240740740741
 30
0.0
 40
0.04722222222222222
  1
(12.0 * 12.0)
  0
POLYLINE
 62
256
  8
0
 66
1
 10
0.0
 20
0.0
 30
0.0
 70
9
  0
VERTEX
  8
0
 10
0.0
 20
420.0
 30
0.0
  0
VERTEX
  8
0
 10
8.5
 20
420.0
 30
0.0
  0
VERTEX
  8
0
 10
8.5
 20
431.0
 30
0.0
  0
VERTEX
  8
0
 10
0.0
 20
431.0
 30
0.0
  0
SEQEND
  0
POLYLINE
 62
256
  8
0
 66
1
 10
0.0
 20
0.0
 30
0.0
 70
9
  0
VERTEX
  8
0
 10
0.0
 20
420.0
 30
0.0
  0
VERTEX
  8
0
 10
1.8888888888888888
 20
420.0
 30
0.0
  0
VERTEX
  8
0
 10
1.8888888888888888
 20
422.2824074074074
 30
0.0
  0
VERTEX
  8
0
 10
0.0
 20
422.2824074074074
 30
0.0
  0
SEQEND
  0
TEXT
  8
0
 10
0.0
 20
422.0935185185185
 30
0.0
 40
0.18888888888888888
  1
LW-428(XXX)
  0
TEXT
  8
0
 10
0.0
 20
421.9046296296296
 30
0.0
 40
0.18888888888888888
  1
(48.0 * 58.0)
  0
POLYLINE
 62
256
  8
0
 66
1
 10
0.0
 20
0.0
 30
0.0
 70
9
  0
VERTEX
  8
0
 10
2.388888888888889
 20
420.0
 30
0.0
  0
VERTEX
  8
0
 10
4.199074074074074
 20
420.0
 30
0.0
  0
VERTEX
  8
0
 10
4.199074074074074
 20
422.2037037037037
 30
0.0
  0
VERTEX
  8
0
 10
2.388888888888889
 20
422.2037037037037
 30
0.0
  0
SEQEND
  0
TEXT
  8
0
 10
2.388888888888889
 20
422.0226851851852
 30
0.0
 40
0.18101851851851852
  1
LW-420(XXX)
  0
TEXT
  8
0
 10
2.388888888888889
 20
421.84166666666664
 30
0.0
 40
0.18101851851851852
  1
(46.0 * 56.0)
  0
POLYLINE
 62
256
  8
0
 66
1
 10
0.0
 20
0.0
 30
0.0
 70
9
  0
VERTEX
  8
0
 10
0.0
 20
422.7824074074074
 30
0.0
  0
VERTEX
  8
0
 10
1.7708333333333335
 20
422.7824074074074
 30
0.0
  0
VERTEX
  8
0
 10
1.7708333333333335
 20
425.0648148148148
 30
0.0
  0
VERTEX
  8
0
 10
0.0
 20
425.0648148148148
 30
0.0
  0
SEQEND
  0
TEXT
  8
0
 10
0.0
 20
424.88773148148147
 30
0.0
 40
0.17708333333333334
  1
LW-426(XXX)
  0
TEXT
  8
0
 10
0.0
 20
424.7106481481481
 30
0.0
 40
0.17708333333333334
  1
(45.0 * 58.0)
  0
POLYLINE
 62
256
  8
0
 66
1
 10
0.0
 20
0.0
 30
0.0
 70
9
  0
VERTEX
  8
0
 10
2.2708333333333335
 20
422.7824074074074
 30
0.0
  0
VERTEX
  8
0
 10
4.002314814814815
 20
422.7824074074074
 30
0.0
  0
VERTEX
  8
0
 10
4.002314814814815
 20
425.02546296296293
 30
0.0
  0
VERTEX
  8
0
 10
2.2708333333333335
 20
425.02546296296293
 30
0.0
  0
SEQEND
  0
TEXT
  8
0
 10
2.2708333333333335
 20
424.8523148148148
 30
0.0
 40
0.17314814814814816
  1
LC-232(XXX)
  0
TEXT
  8
0
 10
2.2708333333333335
 20
424.6791666666666
 30
0.0
 40
0.17314814814814816
  1
(44.0 * 57.0)
  0
POLYLINE
 62
256
  8
0
 66
1
 10
0.0
 20
0.0
 30
0.0
 70
9
  0
VERTEX
  8
0
 10
0.0
 20
425.56481481481484
 30
0.0
  0
VERTEX
  8
0
 10
1.6921296296296298
 20
425.56481481481484
 30
0.0
  0
VERTEX
  8
0
 10
1.6921296296296298
 20
427.4930555555556
 30
0.0
  0
VERTEX
  8
0
 10
0.0
 20
427.4930555555556
 30
0.0
  0
SEQEND
  0
TEXT
  8
0
 10
0.0
 20
427.32384259259265
 30
0.0
 40
0.16921296296296295
  1
LC-224(XXX)
  0
TEXT
  8
0
 10
0.0
 20
427.15462962962965
 30
0.0
 40
0.16921296296296295
  1
(43.0 * 49.0)
  0
POLYLINE
 62
256
  8
0
 66
1
 10
0.0
 20
0.0
 30
0.0
 70
9
  0
VERTEX
  8
0
 10
2.1921296296296298
 20
425.56481481481484
 30
0.0
  0
VERTEX
  8
0
 10
4.081018518518519
 20
425.56481481481484
 30
0.0
  0
VERTEX
  8
0
 10
4.081018518518519
 20
427.45370370370375
 30
0.0
  0
VERTEX
  8
0
 10
2.1921296296296298
 20
427.45370370370375
 30
0.0
  0
SEQEND
  0
TEXT
  8
0
 10
2.1921296296296298
 20
427.2648148148149
 30
0.0
 40
0.18888888888888888
  1
LC-201(XXX)
  0
TEXT
  8
0
 10
2.1921296296296298
 20
427.07592592592596
 30
0.0
 40
0.18888888888888888
  1
(48.0 * 48.0)
  0
POLYLINE
 62
256
  8
0
 66
1
 10
0.0
 20
0.0
 30
0.0
 70
9
  0
VERTEX
  8
0
 10
4.502314814814815
 20
422.7824074074074
 30
0.0
  0
VERTEX
  8
0
 10
5.525462962962963
 20
422.7824074074074
 30
0.0
  0
VERTEX
  8
0
 10
5.525462962962963
 20
424.2384259259259
 30
0.0
  0
VERTEX
  8
0
 10
4.502314814814815
 20
424.2384259259259
 30
0.0
  0
SEQEND
  0
TEXT
  8
0
 10
4.502314814814815
 20
424.1361111111111
 30
0.0
 40
0.10231481481481482
  1
LW-435(XXX)
  0
TEXT
  8
0
 10
4.502314814814815
 20
424.0337962962963
 30
0.0
 40
0.10231481481481482
  1
(26.0 * 37.0)
  0
POLYLINE
 62
256
  8
0
 66
1
 10
0.0
 20
0.0
 30
0.0
 70
9
  0
VERTEX
  8
0
 10
4.699074074074074
 20
420.0
 30
0.0
  0
VERTEX
  8
0
 10
5.486111111111112
 20
420.0
 30
0.0
  0
VERTEX
  8
0
 10
5.486111111111112
 20
420.787037037037
 30
0.0
  0
VERTEX
  8
0
 10
4.699074074074074
 20
420.787037037037
 30
0.0
  0
SEQEND
  0
TEXT
  8
0
 10
4.699074074074074
 20
420.7083333333333
 30
0.0
 40
0.0787037037037037
  1
SW-307(XXX)
  0
TEXT
  8
0
 10
4.699074074074074
 20
420.6296296296296
 30
0.0
 40
0.0787037037037037
  1
(20.0 * 20.0)
  0
POLYLINE
 62
256
  8
0
 66
1
 10
0.0
 20
0.0
 30
0.0
 70
9
  0
VERTEX
  8
0
 10
4.581018518518519
 20
425.56481481481484
 30
0.0
  0
VERTEX
  8
0
 10
5.289351851851852
 20
425.56481481481484
 30
0.0
  0
VERTEX
  8
0
 10
5.289351851851852
 20
426.35185185185185
 30
0.0
  0
VERTEX
  8
0
 10
4.581018518518519
 20
426.35185185185185
 30
0.0
  0
SEQEND
  0
TEXT
  8
0
 10
4.581018518518519
 20
426.2810185185185
 30
0.0
 40
0.07083333333333333
  1
SW-301(XXX)
  0
TEXT
  8
0
 10
4.581018518518519
 20
426.2101851851852
 30
0.0
 40
0.07083333333333333
  1
(18.0 * 20.0)
  0
POLYLINE
 62
256
  8
0
 66
1
 10
0.0
 20
0.0
 30
0.0
 70
9
  0
VERTEX
  8
0
 10
0.0
 20
441.0
 30
0.0
  0
VERTEX
  8
0
 10
8.5
 20
441.0
 30
0.0
  0
VERTEX
  8
0
 10
8.5
 20
452.0
 30
0.0
  0
VERTEX
  8
0
 10
0.0
 20
452.0
 30
0.0
  0
SEQEND
  0
POLYLINE
 62
256
  8
0
 66
1
 10
0.0
 20
0.0
 30
0.0
 70
9
  0
VERTEX
  8
0
 10
0.0
 20
441.0
 30
0.0
  0
VERTEX
  8
0
 10
1.7314814814814816
 20
441.0
 30
0.0
  0
VERTEX
  8
0
 10
1.7314814814814816
 20
443.43981481481484
 30
0.0
  0
VERTEX
  8
0
 10
0.0
 20
443.43981481481484
 30
0.0
  0
SEQEND
  0
TEXT
  8
0
 10
0.0
 20
443.2666666666667
 30
0.0
 40
0.17314814814814816
  1
LW-427(XXX)
  0
TEXT
  8
0
 10
0.0
 20
443.0935185185185
 30
0.0
 40
0.17314814814814816
  1
(44.0 * 62.0)
  0
POLYLINE
 62
256
  8
0
 66
1
 10
0.0
 20
0.0
 30
0.0
 70
9
  0
VERTEX
  8
0
 10
2.231481481481482
 20
441.0
 30
0.0
  0
VERTEX
  8
0
 10
3.9039351851851856
 20
441.0
 30
0.0
  0
VERTEX
  8
0
 10
3.9039351851851856
 20
443.06597222222223
 30
0.0
  0
VERTEX
  8
0
 10
2.231481481481482
 20
443.06597222222223
 30
0.0
  0
SEQEND
  0
TEXT
  8
0
 10
2.231481481481482
 20
442.89872685185185
 30
0.0
 40
0.16724537037037038
  1
LC-220(XXX)
  0
TEXT
  8
0
 10
2.231481481481482
 20
442.73148148148147
 30
0.0
 40
0.16724537037037038
  1
(42.5 * 52.5)
  0
POLYLINE
 62
256
  8
0
 66
1
 10
0.0
 20
0.0
 30
0.0
 70
9
  0
VERTEX
  8
0
 10
0.0
 20
443.93981481481484
 30
0.0
  0
VERTEX
  8
0
 10
1.613425925925926
 20
443.93981481481484
 30
0.0
  0
VERTEX
  8
0
 10
1.613425925925926
 20
445.98611111111114
 30
0.0
  0
VERTEX
  8
0
 10
0.0
 20
445.98611111111114
 30
0.0
  0
SEQEND
  0
TEXT
  8
0
 10
0.0
 20
445.82476851851857
 30
0.0
 40
0.1613425925925926
  1
LW-431(XXX)
  0
TEXT
  8
0
 10
0.0
 20
445.66342592592594
 30
0.0
 40
0.1613425925925926
  1
(41.0 * 52.0)
  0
POLYLINE
 62
256
  8
0
 66
1
 10
0.0
 20
0.0
 30
0.0
 70
9
  0
VERTEX
  8
0
 10
2.113425925925926
 20
443.93981481481484
 30
0.0
  0
VERTEX
  8
0
 10
4.002314814814815
 20
443.93981481481484
 30
0.0
  0
VERTEX
  8
0
 10
4.002314814814815
 20
445.82870370370375
 30
0.0
  0
VERTEX
  8
0
 10
2.113425925925926
 20
445.82870370370375
 30
0.0
  0
SEQEND
  0
TEXT
  8
0
 10
2.113425925925926
 20
445.6398148148149
 30
0.0
 40
0.18888888888888888
  1
LW-422(XXX)
  0
TEXT
  8
0
 10
2.113425925925926
 20
445.45092592592596
 30
0.0
 40
0.18888888888888888
  1
(48.0 * 48.0)
  0
POLYLINE
 62
256
  8
0
 66
1
 10
0.0
 20
0.0
 30
0.0
 70
9
  0
VERTEX
  8
0
 10
0.0
 20
446.4861111111111
 30
0.0
  0
VERTEX
  8
0
 10
1.7511574074074074
 20
446.4861111111111
 30
0.0
  0
VERTEX
  8
0
 10
1.7511574074074074
 20
448.2372685185185
 30
0.0
  0
VERTEX
  8
0
 10
0.0
 20
448.2372685185185
 30
0.0
  0
SEQEND
  0
TEXT
  8
0
 10
0.0
 20
448.0621527777777
 30
0.0
 40
0.17511574074074077
  1
LW-415(XXX)
  0
TEXT
  8
0
 10
0.0
 20
447.887037037037
 30
0.0
 40
0.17511574074074077
  1
(44.5 * 44.5)
  0
POLYLINE
 62
256
  8
0
 66
1
 10
0.0
 20
0.0
 30
0.0
 70
9
  0
VERTEX
  8
0
 10
2.2511574074074074
 20
446.4861111111111
 30
0.0
  0
VERTEX
  8
0
 10
3.8842592592592595
 20
446.4861111111111
 30
0.0
  0
VERTEX
  8
0
 10
3.8842592592592595
 20
448.11921296296293
 30
0.0
  0
VERTEX
  8
0
 10
2.2511574074074074
 20
448.11921296296293
 30
0.0
  0
SEQEND
  0
TEXT
  8
0
 10
2.2511574074074074
 20
447.95590277777774
 30
0.0
 40
0.1633101851851852
  1
LW-410(XXX)
  0
TEXT
  8
0
 10
2.2511574074074074
 20
447.79259259259254
 30
0.0
 40
0.1633101851851852
  1
(41.5 * 41.5)
  0
POLYLINE
 62
256
  8
0
 66
1
 10
0.0
 20
0.0
 30
0.0
 70
9
  0
VERTEX
  8
0
 10
4.403935185185185
 20
441.0
 30
0.0
  0
VERTEX
  8
0
 10
5.427083333333333
 20
441.0
 30
0.0
  0
VERTEX
  8
0
 10
5.427083333333333
 20
442.25925925925924
 30
0.0
  0
VERTEX
  8
0
 10
4.403935185185185
 20
442.25925925925924
 30
0.0
  0
SEQEND
  0
TEXT
  8
0
 10
4.403935185185185
 20
442.15694444444443
 30
0.0
 40
0.10231481481481482
  1
SW-308(XXX)
  0
TEXT
  8
0
 10
4.403935185185185
 20
442.05462962962963
 30
0.0
 40
0.10231481481481482
  1
(26.0 * 32.0)
  0
POLYLINE
 62
256
  8
0
 66
1
 10
0.0
 20
0.0
 30
0.0
 70
9
  0
VERTEX
  8
0
 10
0.0
 20
462.0
 30
0.0
  0
VERTEX
  8
0
 10
8.5
 20
462.0
 30
0.0
  0
VERTEX
  8
0
 10
8.5
 20
473.0
 30
0.0
  0
VERTEX
  8
0
 10
0.0
 20
473.0
 30
0.0
  0
SEQEND
  0
POLYLINE
 62
256
  8
0
 66
1
 10
0.0
 20
0.0
 30
0.0
 70
9
  0
VERTEX
  8
0
 10
0.0
 20
462.0
 30
0.0
  0
VERTEX
  8
0
 10
1.5740740740740742
 20
462.0
 30
0.0
  0
VERTEX
  8
0
 10
1.5740740740740742
 20
464.3611111111111
 30
0.0
  0
VERTEX
  8
0
 10
0.0
 20
464.3611111111111
 30
0.0
  0
SEQEND
  0
TEXT
  8
0
 10
0.0
 20
464.2037037037037
 30
0.0
 40
0.1574074074074074
  1
LC-221(XXX)
  0
TEXT
  8
0
 10
0.0
 20
464.04629629629625
 30
0.0
 40
0.1574074074074074
  1
(40.0 * 60.0)
  0
POLYLINE
 62
256
  8
0
 66
1
 10
0.0
 20
0.0
 30
0.0
 70
9
  0
VERTEX
  8
0
 10
0.0
 20
464.8611111111111
 30
0.0
  0
VERTEX
  8
0
 10
3.7777777777777777
 20
464.8611111111111
 30
0.0
  0
VERTEX
  8
0
 10
3.7777777777777777
 20
468.63888888888886
 30
0.0
  0
VERTEX
  8
0
 10
0.0
 20
468.63888888888886
 30
0.0
  0
SEQEND
  0
TEXT
  8
0
 10
0.0
 20
468.26111111111106
 30
0.0
 40
0.37777777777777777
  1
R-600(XXX)
  0
TEXT
  8
0
 10
0.0
 20
467.8833333333333
 30
0.0
 40
0.37777777777777777
  1
(96.0 * 96.0)
  0
POLYLINE
 62
256
  8
0
 66
1
 10
0.0
 20
0.0
 30
0.0
 70
9
  0
VERTEX
  8
0
 10
2.0740740740740744
 20
462.0
 30
0.0
  0
VERTEX
  8
0
 10
3.8055555555555562
 20
462.0
 30
0.0
  0
VERTEX
  8
0
 10
3.8055555555555562
 20
463.8888888888889
 30
0.0
  0
VERTEX
  8
0
 10
2.0740740740740744
 20
463.8888888888889
 30
0.0
  0
SEQEND
  0
TEXT
  8
0
 10
2.0740740740740744
 20
463.7157407407408
 30
0.0
 40
0.17314814814814816
  1
LW-436(XXX)
  0
TEXT
  8
0
 10
2.0740740740740744
 20
463.5425925925926
 30
0.0
 40
0.17314814814814816
  1
(44.0 * 48.0)
  0
POLYLINE
 62
256
  8
0
 66
1
 10
0.0
 20
0.0
 30
0.0
 70
9
  0
VERTEX
  8
0
 10
4.277777777777778
 20
464.8611111111111
 30
0.0
  0
VERTEX
  8
0
 10
5.969907407407407
 20
464.8611111111111
 30
0.0
  0
VERTEX
  8
0
 10
5.969907407407407
 20
466.75
 30
0.0
  0
VERTEX
  8
0
 10
4.277777777777778
 20
466.75
 30
0.0
  0
SEQEND
  0
TEXT
  8
0
 10
4.277777777777778
 20
466.58078703703706
 30
0.0
 40
0.16921296296296295
  1
LW-421(XXX)
  0
TEXT
  8
0
 10
4.277777777777778
 20
466.41157407407405
 30
0.0
 40
0.16921296296296295
  1
(43.0 * 48.0)
  0
POLYLINE
 62
256
  8
0
 66
1
 10
0.0
 20
0.0
 30
0.0
 70
9
  0
VERTEX
  8
0
 10
4.305555555555556
 20
462.0
 30
0.0
  0
VERTEX
  8
0
 10
5.918981481481483
 20
462.0
 30
0.0
  0
VERTEX
  8
0
 10
5.918981481481483
 20
463.6134259259259
 30
0.0
  0
VERTEX
  8
0
 10
4.305555555555556
 20
463.6134259259259
 30
0.0
  0
SEQEND
  0
TEXT
  8
0
 10
4.305555555555556
 20
463.45208333333335
 30
0.0
 40
0.1613425925925926
  1
LW-437(XXX)
  0
TEXT
  8
0
 10
4.305555555555556
 20
463.2907407407407
 30
0.0
 40
0.1613425925925926
  1
(41.0 * 41.0)
  0
POLYLINE
 62
256
  8
0
 66
1
 10
0.0
 20
0.0
 30
0.0
 70
9
  0
VERTEX
  8
0
 10
0.0
 20
483.0
 30
0.0
  0
VERTEX
  8
0
 10
8.5
 20
483.0
 30
0.0
  0
VERTEX
  8
0
 10
8.5
 20
494.0
 30
0.0
  0
VERTEX
  8
0
 10
0.0
 20
494.0
 30
0.0
  0
SEQEND
  0
POLYLINE
 62
256
  8
0
 66
1
 10
0.0
 20
0.0
 30
0.0
 70
9
  0
VERTEX
  8
0
 10
0.0
 20
483.0
 30
0.0
  0
VERTEX
  8
0
 10
1.4953703703703705
 20
483.0
 30
0.0
  0
VERTEX
  8
0
 10
1.4953703703703705
 20
484.8888888888889
 30
0.0
  0
VERTEX
  8
0
 10
0.0
 20
484.8888888888889
 30
0.0
  0
SEQEND
  0
TEXT
  8
0
 10
0.0
 20
484.7393518518519
 30
0.0
 40
0.14953703703703702
  1
LW-423(XXX)
  0
TEXT
  8
0
 10
0.0
 20
484.5898148148148
 30
0.0
 40
0.14953703703703702
  1
(38.0 * 48.0)
  0
POLYLINE
 62
256
  8
0
 66
1
 10
0.0
 20
0.0
 30
0.0
 70
9
  0
VERTEX
  8
0
 10
0.0
 20
485.3888888888889
 30
0.0
  0
VERTEX
  8
0
 10
4.25
 20
485.3888888888889
 30
0.0
  0
VERTEX
  8
0
 10
4.25
 20
489.6388888888889
 30
0.0
  0
VERTEX
  8
0
 10
0.0
 20
489.6388888888889
 30
0.0
  0
SEQEND
  0
TEXT
  8
0
 10
0.0
 20
489.2138888888889
 30
0.0
 40
0.42500000000000004
  1
B-112(XXX)
  0
TEXT
  8
0
 10
0.0
 20
488.7888888888889
 30
0.0
 40
0.42500000000000004
  1
(108.0 * 108.0)
  0
POLYLINE
 62
256
  8
0
 66
1
 10
0.0
 20
0.0
 30
0.0
 70
9
  0
VERTEX
  8
0
 10
4.75
 20
485.3888888888889
 30
0.0
  0
VERTEX
  8
0
 10
7.701388888888889
 20
485.3888888888889
 30
0.0
  0
VERTEX
  8
0
 10
7.701388888888889
 20
489.2453703703704
 30
0.0
  0
VERTEX
  8
0
 10
4.75
 20
489.2453703703704
 30
0.0
  0
SEQEND
  0
TEXT
  8
0
 10
4.75
 20
488.95023148148147
 30
0.0
 40
0.2951388888888889
  1
B-121(XXX)
  0
TEXT
  8
0
 10
4.75
 20
488.6550925925926
 30
0.0
 40
0.2951388888888889
  1
(75.0 * 98.0)
  0
POLYLINE
 62
256
  8
0
 66
1
 10
0.0
 20
0.0
 30
0.0
 70
9
  0
VERTEX
  8
0
 10
0.0
 20
504.0
 30
0.0
  0
VERTEX
  8
0
 10
8.5
 20
504.0
 30
0.0
  0
VERTEX
  8
0
 10
8.5
 20
515.0
 30
0.0
  0
VERTEX
  8
0
 10
0.0
 20
515.0
 30
0.0
  0
SEQEND
  0
POLYLINE
 62
256
  8
0
 66
1
 10
0.0
 20
0.0
 30
0.0
 70
9
  0
VERTEX
  8
0
 10
0.0
 20
504.0
 30
0.0
  0
VERTEX
  8
0
 10
3.935185185185185
 20
504.0
 30
0.0
  0
VERTEX
  8
0
 10
3.935185185185185
 20
507.93518518518516
 30
0.0
  0
VERTEX
  8
0
 10
0.0
 20
507.93518518518516
 30
0.0
  0
SEQEND
  0
TEXT
  8
0
 10
0.0
 20
507.54166666666663
 30
0.0
 40
0.39351851851851855
  1
B-135(XXX)
  0
TEXT
  8
0
 10
0.0
 20
507.14814814814815
 30
0.0
 40
0.39351851851851855
  1
(100.0 * 100.0)
  0
POLYLINE
 62
256
  8
0
 66
1
 10
0.0
 20
0.0
 30
0.0
 70
9
  0
VERTEX
  8
0
 10
0.0
 20
508.43518518518516
 30
0.0
  0
VERTEX
  8
0
 10
3.6990740740740744
 20
508.43518518518516
 30
0.0
  0
VERTEX
  8
0
 10
3.6990740740740744
 20
512.6064814814814
 30
0.0
  0
VERTEX
  8
0
 10
0.0
 20
512.6064814814814
 30
0.0
  0
SEQEND
  0
TEXT
  8
0
 10
0.0
 20
512.236574074074
 30
0.0
 40
0.3699074074074074
  1
B-109(XXX)
  0
TEXT
  8
0
 10
0.0
 20
511.8666666666666
 30
0.0
 40
0.3699074074074074
  1
(94.0 * 106.0)
  0
POLYLINE
 62
256
  8
0
 66
1
 10
0.0
 20
0.0
 30
0.0
 70
9
  0
VERTEX
  8
0
 10
4.199074074074074
 20
508.43518518518516
 30
0.0
  0
VERTEX
  8
0
 10
7.662037037037038
 20
508.43518518518516
 30
0.0
  0
VERTEX
  8
0
 10
7.662037037037038
 20
512.3703703703703
 30
0.0
  0
VERTEX
  8
0
 10
4.199074074074074
 20
512.3703703703703
 30
0.0
  0
SEQEND
  0
TEXT
  8
0
 10
4.199074074074074
 20
512.0240740740741
 30
0.0
 40
0.3462962962962963
  1
B-113(XXX)
  0
TEXT
  8
0
 10
4.199074074074074
 20
511.67777777777775
 30
0.0
 40
0.3462962962962963
  1
(88.0 * 100.0)
  0
POLYLINE
 62
256
  8
0
 66
1
 10
0.0
 20
0.0
 30
0.0
 70
9
  0
VERTEX
  8
0
 10
0.0
 20
525.0
 30
0.0
  0
VERTEX
  8
0
 10
8.5
 20
525.0
 30
0.0
  0
VERTEX
  8
0
 10
8.5
 20
536.0
 30
0.0
  0
VERTEX
  8
0
 10
0.0
 20
536.0
 30
0.0
  0
SEQEND
  0
POLYLINE
 62
256
  8
0
 66
1
 10
0.0
 20
0.0
 30
0.0
 70
9
  0
VERTEX
  8
0
 10
0.0
 20
525.0
 30
0.0
  0
VERTEX
  8
0
 10
3.6203703703703707
 20
525.0
 30
0.0
  0
VERTEX
  8
0
 10
3.6203703703703707
 20
529.1712962962963
 30
0.0
  0
VERTEX
  8
0
 10
0.0
 20
529.1712962962963
 30
0.0
  0
SEQEND
  0
TEXT
  8
0
 10
0.0
 20
528.8092592592593
 30
0.0
 40
0.36203703703703705
  1
B-108(XXX)
  0
TEXT
  8
0
 10
0.0
 20
528.4472222222222
 30
0.0
 40
0.36203703703703705
  1
(92.0 * 106.0)
  0
POLYLINE
 62
256
  8
0
 66
1
 10
0.0
 20
0.0
 30
0.0
 70
9
  0
VERTEX
  8
0
 10
0.0
 20
529.6712962962963
 30
0.0
  0
VERTEX
  8
0
 10
3.305555555555556
 20
529.6712962962963
 30
0.0
  0
VERTEX
  8
0
 10
3.305555555555556
 20
534.0787037037037
 30
0.0
  0
VERTEX
  8
0
 10
0.0
 20
534.0787037037037
 30
0.0
  0
SEQEND
  0
TEXT
  8
0
 10
0.0
 20
533.7481481481482
 30
0.0
 40
0.3305555555555556
  1
B-129(XXX)
  0
TEXT
  8
0
 10
0.0
 20
533.4175925925925
 30
0.0
 40
0.3305555555555556
  1
(84.0 * 112.0)
  0
ENDSEC
  0
EOF
